<svg height="512pt" viewBox="0 0 512 512" width="512pt" xmlns="http://www.w3.org/2000/svg"><path d="m511.996094 256c0 141.382812-114.613282 255.996094-255.996094 255.996094-141.386719 0-256-114.613282-256-255.996094 0-141.386719 114.613281-256 256-256 141.382812 0 255.996094 114.613281 255.996094 256zm0 0" fill="#fa0"/><path d="m512 256c0 141.382812-114.617188 256-256 256-75.320312 0-143.050781-32.53125-189.886719-84.308594 44.277344 36.605469 101.0625 58.59375 162.988281 58.59375 141.382813 0 256.003907-114.617187 256.003907-256 0-66.074218-25.035157-126.304687-66.136719-171.722656 56.816406 46.953125 93.03125 117.972656 93.03125 197.4375zm0 0" fill="#ff9500"/><path d="m447.355469 256c0 105.683594-85.671875 191.355469-191.355469 191.355469s-191.359375-85.671875-191.359375-191.355469 85.675781-191.359375 191.359375-191.359375 191.355469 85.675781 191.355469 191.359375zm0 0" fill="#ffcd6b"/><path d="m447.355469 256c0 105.679688-85.675781 191.355469-191.355469 191.355469-50.503906 0-96.4375-19.570313-130.636719-51.515625 28.226563 16.402344 61.035157 25.804687 96.035157 25.804687 105.679687 0 191.359374-85.675781 191.359374-191.359375 0-55.179687-23.359374-104.910156-60.726562-139.839844 57.003906 33.140626 95.324219 94.871094 95.324219 165.554688zm0 0" fill="#ffc143"/><g fill="#cb8000"><path d="m166.21875 78.277344c-6.332031 3.203125-12.566406 6.792968-18.527344 10.664062-3.574218 2.324219-4.589844 7.097656-2.269531 10.671875 1.476563 2.277344 3.953125 3.515625 6.476563 3.515625 1.441406 0 2.898437-.40625 4.195312-1.246094 5.5-3.574218 11.253906-6.886718 17.09375-9.839843 3.800781-1.925781 5.320312-6.566407 3.398438-10.367188-1.925782-3.800781-6.566407-5.324219-10.367188-3.398437zm0 0"/><path d="m221.875 59.84375c-7.011719 1.210938-14.023438 2.816406-20.847656 4.773438-4.09375 1.171874-6.460938 5.445312-5.289063 9.539062.972657 3.386719 4.058594 5.59375 7.414063 5.59375.703125 0 1.417968-.097656 2.128906-.300781 6.289062-1.804688 12.757812-3.285157 19.222656-4.402344 4.199219-.726563 7.015625-4.71875 6.289063-8.914063-.726563-4.199218-4.71875-7.007812-8.917969-6.289062zm0 0"/><path d="m219.101562 435.933594c-6.429687-1.3125-12.847656-2.984375-19.089843-4.980469-4.054688-1.300781-8.398438.9375-9.695313 4.996094-1.296875 4.058593.941406 8.398437 4.996094 9.699219 6.769531 2.164062 13.734375 3.980468 20.703125 5.402343.519531.105469 1.039063.160157 1.550781.160157 3.589844 0 6.804688-2.523438 7.550782-6.175782.851562-4.175781-1.84375-8.25-6.015626-9.101562zm0 0"/><path d="m273.113281 438.855469c-6.507812.601562-13.171875.859375-19.71875.765625-.035156 0-.074219 0-.113281 0-4.207031 0-7.648438 3.382812-7.710938 7.601562-.058593 4.261719 3.34375 7.765625 7.601563 7.824219.941406.015625 1.882813.019531 2.828125.019531 6.179688 0 12.414062-.285156 18.53125-.851562 4.242188-.390625 7.363281-4.148438 6.972656-8.390625-.390625-4.242188-4.144531-7.378907-8.390625-6.96875zm0 0"/><path d="m325.621094 425.988281c-6.070313 2.488281-12.335938 4.667969-18.625 6.480469-4.09375 1.179688-6.453125 5.457031-5.273438 9.550781.972656 3.378907 4.058594 5.578125 7.410156 5.578125.707032 0 1.425782-.097656 2.140626-.304687 6.820312-1.964844 13.617187-4.332031 20.199218-7.03125 3.941406-1.613281 5.828125-6.121094 4.214844-10.0625-1.621094-3.941407-6.125-5.828125-10.066406-4.210938zm0 0"/><path d="m280.460938 58.414062c-7.039063-.859374-14.210938-1.351562-21.324219-1.460937-4.226563-.074219-7.765625 3.332031-7.832031 7.59375-.066407 4.257813 3.335937 7.765625 7.59375 7.832031 6.566406.101563 13.191406.554688 19.6875 1.351563.316406.039062.632812.058593.945312.058593 3.84375 0 7.167969-2.867187 7.648438-6.78125.515624-4.226562-2.492188-8.074218-6.71875-8.59375zm0 0"/><path d="m85.035156 323.195312c-1.558594-3.964843-6.039062-5.914062-10.003906-4.355468-3.960938 1.5625-5.914062 6.039062-4.351562 10.003906 2.597656 6.605469 5.589843 13.152344 8.890624 19.453125 1.378907 2.628906 4.0625 4.132813 6.839844 4.132813 1.207032 0 2.433594-.285157 3.574219-.882813 3.773437-1.980469 5.230469-6.640625 3.253906-10.414063-3.046875-5.8125-5.804687-11.847656-8.203125-17.9375zm0 0"/><path d="m92.933594 155.511719c-3.710938-2.089844-8.414063-.773438-10.503906 2.9375-3.492188 6.195312-6.679688 12.648437-9.480469 19.179687-1.675781 3.914063.136719 8.449219 4.050781 10.128906.992188.425782 2.023438.625 3.035156.625 2.992188 0 5.84375-1.75 7.09375-4.675781 2.582032-6.023437 5.523438-11.972656 8.742188-17.6875 2.089844-3.710937.777344-8.414062-2.9375-10.507812zm0 0"/><path d="m168.308594 417.394531c-5.753906-3.132812-11.402344-6.613281-16.796875-10.355469-3.5-2.425781-8.308594-1.554687-10.734375 1.945313-2.425782 3.503906-1.554688 8.308594 1.945312 10.734375 5.847656 4.054688 11.972656 7.832031 18.207032 11.222656 1.171874.640625 2.4375.941406 3.683593.941406 2.734375 0 5.382813-1.457031 6.78125-4.027343 2.035157-3.742188.65625-8.425781-3.085937-10.460938zm0 0"/><path d="m336.964844 74.085938c-6.5-2.898438-13.222656-5.46875-19.988282-7.640626-4.054687-1.308593-8.398437.925782-9.703124 4.980469-1.304688 4.054688.925781 8.402344 4.980468 9.707031 6.238282 2.003907 12.4375 4.375 18.429688 7.042969 1.019531.457031 2.085937.671875 3.132812.671875 2.953125 0 5.773438-1.703125 7.050782-4.578125 1.734374-3.890625-.011719-8.449219-3.902344-10.183593zm0 0"/><path d="m118.386719 112.152344c-5.132813 4.910156-10.054688 10.152344-14.636719 15.585937-2.746094 3.253907-2.332031 8.125.925781 10.871094 1.445313 1.21875 3.210938 1.816406 4.96875 1.816406 2.195313 0 4.375-.933593 5.898438-2.742187 4.230469-5.011719 8.773437-9.855469 13.507812-14.382813 3.078125-2.945312 3.1875-7.828125.242188-10.90625-2.945313-3.082031-7.828125-3.1875-10.90625-.242187zm0 0"/><path d="m112.046875 370.039062c-2.644531-3.335937-7.5-3.894531-10.835937-1.25-3.339844 2.648438-3.898438 7.5-1.25 10.839844 4.410156 5.5625 9.175781 10.949219 14.164062 16.015625 1.507812 1.535157 3.503906 2.300781 5.496094 2.300781 1.953125 0 3.910156-.734374 5.410156-2.214843 3.039062-2.988281 3.078125-7.871094.085938-10.910157-4.601563-4.675781-9-9.648437-13.070313-14.78125zm0 0"/><path d="m424.574219 150.070312c-3.777344-6.003906-7.933594-11.878906-12.34375-17.457031-2.644531-3.34375-7.492188-3.90625-10.835938-1.265625-3.339843 2.640625-3.910156 7.492188-1.265625 10.835938 4.070313 5.144531 7.902344 10.5625 11.390625 16.105468 1.464844 2.328126 3.972657 3.605469 6.535157 3.605469 1.402343 0 2.824218-.382812 4.101562-1.1875 3.605469-2.269531 4.6875-7.03125 2.417969-10.636719zm0 0"/><path d="m445.449219 284.195312c.277343.027344.554687.042969.828125.042969 3.894531 0 7.238281-2.9375 7.660156-6.898437.753906-7.039063 1.132812-14.21875 1.132812-21.339844 0-5.128906-.199218-10.3125-.589843-15.40625-.324219-4.25-4.035157-7.414062-8.28125-7.105469-4.246094.328125-7.425781 4.035157-7.101563 8.285157.363282 4.703124.542969 9.488281.542969 14.226562 0 6.578125-.351563 13.207031-1.042969 19.707031-.453125 4.234375 2.617188 8.035157 6.851563 8.488281zm0 0"/><path d="m70.71875 207.355469c-4.164062-.910157-8.273438 1.726562-9.1875 5.886719-1.515625 6.933593-2.671875 14.03125-3.4375 21.105468-.457031 4.238282 2.601562 8.042969 6.839844 8.5.28125.03125.5625.046875.839844.046875 3.886718 0 7.230468-2.933593 7.660156-6.886719.703125-6.523437 1.769531-13.074218 3.171875-19.46875.910156-4.160156-1.726563-8.269531-5.886719-9.183593zm0 0"/><path d="m419.21875 356.230469c-3.535156-2.378907-8.328125-1.4375-10.707031 2.097656-3.652344 5.433594-7.648438 10.738281-11.871094 15.765625-2.742187 3.257812-2.320313 8.125.941406 10.867188 1.445313 1.214843 3.207031 1.808593 4.960938 1.808593 2.199219 0 4.382812-.9375 5.910156-2.75 4.574219-5.449219 8.902344-11.195312 12.863281-17.082031 2.375-3.535156 1.4375-8.328125-2.097656-10.707031zm0 0"/><path d="m446.492188 313.980469c1.238281-4.078125-1.0625-8.386719-5.136719-9.625-4.078125-1.238281-8.386719 1.0625-9.625 5.136719-1.90625 6.273437-4.175781 12.507812-6.75 18.535156-1.671875 3.917968.148437 8.449218 4.066406 10.125.988281.421875 2.011719.621094 3.023437.621094 2.996094 0 5.847657-1.757813 7.097657-4.6875 2.792969-6.539063 5.257812-13.304688 7.324219-20.105469zm0 0"/><path d="m64.628906 263.417969c-4.246094.332031-7.421875 4.046875-7.089844 8.292969.554688 7.097656 1.5 14.226562 2.804688 21.195312.695312 3.707031 3.933594 6.292969 7.574219 6.292969.46875 0 .949219-.042969 1.429687-.132813 4.1875-.785156 6.945313-4.816406 6.160156-9.003906-1.207031-6.425781-2.078124-13.007812-2.585937-19.554688-.332031-4.246093-4.039063-7.417968-8.292969-7.089843zm0 0"/><path d="m372.074219 398.3125c-5.082031 4.148438-10.441407 8.066406-15.925781 11.644531-3.570313 2.324219-4.578126 7.105469-2.25 10.675781 1.480468 2.265626 3.949218 3.5 6.46875 3.5 1.445312 0 2.90625-.40625 4.207031-1.253906 5.945312-3.875 11.75-8.121094 17.257812-12.617187 3.300781-2.695313 3.789063-7.554688 1.09375-10.855469-2.691406-3.296875-7.550781-3.789062-10.851562-1.09375zm0 0"/><path d="m386.40625 105.585938c-5.367188-4.660157-11.046875-9.078126-16.875-13.132813-3.496094-2.429687-8.304688-1.566406-10.738281 1.929687-2.433594 3.5-1.566407 8.304688 1.929687 10.738282 5.378906 3.742187 10.617188 7.816406 15.574219 12.117187 1.460937 1.269531 3.261719 1.886719 5.050781 1.886719 2.160156 0 4.304688-.898438 5.832032-2.65625 2.792968-3.21875 2.445312-8.089844-.773438-10.882812zm0 0"/><path d="m431.433594 179.070312c-3.964844 1.550782-5.921875 6.027344-4.371094 9.996094 2.390625 6.101563 4.472656 12.402344 6.1875 18.722656.933594 3.433594 4.042969 5.695313 7.441406 5.695313.667969 0 1.347656-.085937 2.023438-.269531 4.109375-1.117188 6.539062-5.355469 5.425781-9.464844-1.863281-6.855469-4.121094-13.691406-6.710937-20.308594-1.550782-3.96875-6.027344-5.925781-9.996094-4.371094zm0 0"/><path d="m263.714844 36.214844v-12.339844c0-4.261719-3.457032-7.714844-7.714844-7.714844-4.261719 0-7.714844 3.453125-7.714844 7.714844v12.339844c0 4.261718 3.453125 7.714844 7.714844 7.714844 4.257812 0 7.714844-3.453126 7.714844-7.714844zm0 0"/><path d="m256 468.066406c-4.261719 0-7.714844 3.453125-7.714844 7.714844v12.34375c0 4.261719 3.453125 7.714844 7.714844 7.714844 4.257812 0 7.714844-3.453125 7.714844-7.714844v-12.34375c0-4.261719-3.457032-7.714844-7.714844-7.714844zm0 0"/><path d="m139.425781 69.519531c1.429688 2.472657 4.023438 3.859375 6.6875 3.859375 1.308594 0 2.636719-.335937 3.851563-1.035156 3.6875-2.132812 4.953125-6.851562 2.820312-10.539062l-6.167968-10.6875c-2.132813-3.691407-6.847657-4.953126-10.539063-2.824219-3.6875 2.128906-4.953125 6.847656-2.820313 10.535156zm0 0"/><path d="m372.570312 442.480469c-2.128906-3.691407-6.847656-4.953125-10.535156-2.824219-3.691406 2.128906-4.957031 6.847656-2.824218 10.535156l6.171874 10.691406c1.429688 2.472657 4.019532 3.855469 6.6875 3.855469 1.308594 0 2.632813-.332031 3.847657-1.035156 3.691406-2.128906 4.953125-6.847656 2.824219-10.535156zm0 0"/><path d="m69.519531 139.429688-10.691406-6.171876c-3.6875-2.128906-8.40625-.867187-10.535156 2.820313-2.128907 3.691406-.867188 8.410156 2.824219 10.539063l10.6875 6.171874c1.214843.699219 2.542968 1.035157 3.851562 1.035157 2.664062 0 5.257812-1.382813 6.6875-3.859375 2.128906-3.6875.863281-8.40625-2.824219-10.535156zm0 0"/><path d="m453.167969 378.742188c1.214843.699218 2.542969 1.035156 3.851562 1.035156 2.664063 0 5.257813-1.382813 6.683594-3.859375 2.132813-3.6875.867187-8.40625-2.820313-10.535157l-10.691406-6.171874c-3.6875-2.128907-8.40625-.867188-10.535156 2.824218-2.128906 3.6875-.867188 8.40625 2.824219 10.535156zm0 0"/><path d="m36.214844 248.285156h-12.339844c-4.261719 0-7.714844 3.453125-7.714844 7.714844s3.453125 7.714844 7.714844 7.714844h12.339844c4.261718 0 7.714844-3.453125 7.714844-7.714844s-3.453126-7.714844-7.714844-7.714844zm0 0"/><path d="m488.125 263.714844c4.257812 0 7.714844-3.453125 7.714844-7.714844s-3.457032-7.714844-7.714844-7.714844h-12.34375c-4.257812 0-7.714844 3.453125-7.714844 7.714844s3.457032 7.714844 7.714844 7.714844zm0 0"/><path d="m61.804688 359.210938-10.6875 6.171874c-3.691407 2.128907-4.957032 6.847657-2.824219 10.535157 1.429687 2.476562 4.023437 3.859375 6.6875 3.859375 1.308593 0 2.632812-.335938 3.847656-1.035156l10.691406-6.171876c3.6875-2.128906 4.953125-6.847656 2.824219-10.539062-2.132812-3.6875-6.851562-4.949219-10.539062-2.820312zm0 0"/><path d="m463.707031 136.078125c-2.132812-3.6875-6.847656-4.949219-10.539062-2.820313l-10.6875 6.171876c-3.691407 2.128906-4.953125 6.847656-2.824219 10.535156 1.429688 2.476562 4.023438 3.859375 6.6875 3.859375 1.308594 0 2.636719-.335938 3.851562-1.035157l10.6875-6.171874c3.6875-2.128907 4.953126-6.847657 2.824219-10.539063zm0 0"/><path d="m149.964844 439.65625c-3.691406-2.128906-8.40625-.867188-10.535156 2.824219l-6.171876 10.6875c-2.128906 3.6875-.867187 8.40625 2.820313 10.535156 1.21875.703125 2.542969 1.035156 3.851563 1.035156 2.667968 0 5.257812-1.382812 6.6875-3.855469l6.171874-10.691406c2.128907-3.6875.863282-8.40625-2.824218-10.535156zm0 0"/><path d="m362.03125 72.34375c1.214844.699219 2.542969 1.035156 3.851562 1.035156 2.667969 0 5.257813-1.386718 6.6875-3.859375l6.171876-10.691406c2.128906-3.6875.863281-8.40625-2.824219-10.535156-3.6875-2.128907-8.40625-.867188-10.535157 2.824219l-6.171874 10.6875c-2.132813 3.6875-.867188 8.40625 2.820312 10.539062zm0 0"/><path d="m330.671875 265.957031c-7.257813-8.933593-17.21875-14.886719-29.871094-17.867187 8.558594-4.464844 15.304688-10.328125 20.238281-17.582032 4.929688-7.261718 7.398438-15.445312 7.398438-24.566406 0-11.167968-2.746094-21.167968-8.234375-30.007812-5.492187-8.835938-13.078125-15.722656-22.75-20.65625-8.464844-4.3125-18-6.742188-28.597656-7.28125v-20.207032c0-7.097656-5.753907-12.855468-12.855469-12.855468s-12.859375 5.753906-12.859375 12.855468v20.089844h-45.621094c-4.09375 0-7.539062 1.351563-10.328125 4.046875-2.792968 2.699219-4.1875 6.1875-4.1875 10.46875v188.980469c0 4.09375 1.394532 7.535156 4.1875 10.328125 2.789063 2.789063 6.230469 4.183594 10.328125 4.183594h45.621094v18.320312c0 7.097657 5.757813 12.855469 12.859375 12.855469s12.855469-5.753906 12.855469-12.855469v-18.316406h1.242187c13.769532 0 26.097656-2.789063 36.988282-8.375 10.886718-5.582031 19.351562-13.398437 25.398437-23.449219 6.046875-10.046875 9.074219-21.394531 9.074219-34.054687 0-13.769531-3.628906-25.121094-10.886719-34.054688zm-118.636719-91.28125h52.199219c10.980469 0 19.773437 2.652344 26.378906 7.957031 6.605469 5.304688 9.910157 13.078126 9.910157 23.308594 0 10.234375-3.304688 18.050782-9.910157 23.449219s-15.398437 8.09375-26.378906 8.09375h-52.199219zm89.605469 154.226563c-8.003906 6.796875-18.519531 10.191406-31.542969 10.191406h-58.0625v-74.8125h58.0625c13.210938 0 23.769532 3.070312 31.683594 9.210938 7.90625 6.144531 11.863281 14.984374 11.863281 26.519531 0 12.472656-4.003906 22.101562-12.003906 28.890625zm0 0"/></g></svg>