<?xml version="1.0"?>
<svg xmlns="http://www.w3.org/2000/svg" viewBox="0 0 64 64" width="512" height="512"><path d="m56.359 34.15385h-6.35924l-2 5.84615-2-5.84615h-12l-2 5.84615-2-5.84615h-12l-2 5.84615-2-5.84615h-6.35927a5.64074 5.64074 0 0 1 -5.64073-5.64074v-20.87237a5.64073 5.64073 0 0 1 5.64073-5.64074h48.71851a5.64074 5.64074 0 0 1 5.64074 5.64074v20.87237a5.64075 5.64075 0 0 1 -5.64074 5.64074z" fill="#82d8d4"/><rect fill="#b3f2ed" height="28" rx="5.64074" width="56" x="3.99976" y="4"/><circle cx="49.99976" cy="18" fill="#e9cd4b" r="7"/><path d="m9.34326 51.22852a4 4 0 1 0 -4.687 0 3.91469 3.91469 0 0 0 -2.65649 3.6986v7.07288h10v-7.07288a3.9147 3.9147 0 0 0 -2.65651-3.6986z" fill="#816892"/><path d="m2.99976 48a3.985 3.985 0 0 0 1.65649 3.22852 3.91469 3.91469 0 0 0 -2.65649 3.6986v7.07288h5v-18a4 4 0 0 0 -4 4z" fill="#6b567a"/><path d="m26.34326 51.22852a4 4 0 1 0 -4.687 0 3.91469 3.91469 0 0 0 -2.65649 3.6986v7.07288h10v-7.07288a3.9147 3.9147 0 0 0 -2.65651-3.6986z" fill="#e9c51e"/><path d="m19.99976 48a3.985 3.985 0 0 0 1.65649 3.22852 3.91469 3.91469 0 0 0 -2.65649 3.6986v7.07288h5v-18a4 4 0 0 0 -4 4z" fill="#d4b31b"/><path d="m42.34326 51.22852a4 4 0 1 0 -4.687 0 3.91469 3.91469 0 0 0 -2.65649 3.6986v7.07288h10v-7.07288a3.9147 3.9147 0 0 0 -2.65651-3.6986z" fill="#de2f55"/><path d="m35.99976 48a3.985 3.985 0 0 0 1.65649 3.22852 3.91469 3.91469 0 0 0 -2.65649 3.6986v7.07288h5v-18a4 4 0 0 0 -4 4z" fill="#c43755"/><path d="m59.34326 51.22852a4 4 0 1 0 -4.687 0 3.91469 3.91469 0 0 0 -2.65649 3.6986v7.07288h10v-7.07288a3.9147 3.9147 0 0 0 -2.65651-3.6986z" fill="#f79694"/><path d="m52.99976 48a3.985 3.985 0 0 0 1.65649 3.22852 3.91469 3.91469 0 0 0 -2.65649 3.6986v7.07288h5v-18a4 4 0 0 0 -4 4z" fill="#d9918f"/><g fill="#816892"><path d="m8.70679 15.707-1.41407-1.414 1.29346-1.294-.58642-.58642a2.00045 2.00045 0 0 1 .001-2.8291l1.29248-1.291 1.41309 1.415-1.29248 1.291.58642.58642a2.00267 2.00267 0 0 1 .00049 2.82764z"/><path d="m12.70679 15.707-1.41407-1.414 1.29346-1.294-.58642-.58642a2.00045 2.00045 0 0 1 .001-2.8291l1.29248-1.291 1.41309 1.415-1.29248 1.291.58642.58642a2.00267 2.00267 0 0 1 .00049 2.82764z"/><path d="m16.70679 15.707-1.41407-1.414 1.29346-1.294-.58642-.58642a2.00045 2.00045 0 0 1 .001-2.8291l1.29248-1.291 1.41309 1.415-1.29248 1.291.58642.58642a2.00267 2.00267 0 0 1 .00049 2.82764z"/></g><path d="m38 14.2v-5.2h-3v2.8l-3-2.8-9 8h3v10h12v-10h3z" fill="#59bc19"/><path d="m50.29614 17.04346c-1.127-.35108-1.29638-.4878-1.29638-1.04346a1 1 0 0 1 2 0h2a2.99508 2.99508 0 0 0 -2-2.81573v-2.18427h-2v2.18427a2.99507 2.99507 0 0 0 -2 2.81573c0 2.11084 1.69091 2.6377 2.70117 2.95264 1.1289.35205 1.29883.48925 1.29883 1.04736a1 1 0 1 1 -2 0h-2a2.995 2.995 0 0 0 2 2.81567v2.18433h2v-2.18427a2.99508 2.99508 0 0 0 2-2.81573c0-2.11377-1.69239-2.64111-2.70362-2.95654z" fill="#f2872f"/><path d="m7.99976 23 .88582-2.21457a4.43112 4.43112 0 0 1 4.11417-2.78543 4.43111 4.43111 0 0 1 4.11417 2.78543l.88584 2.21457" fill="#f79694"/><path d="m7 23h12l-2 3.949h-8z" fill="#de2f55"/></svg>
