<svg height="512pt" viewBox="-28 0 511 512" width="512pt" xmlns="http://www.w3.org/2000/svg"><path d="m455.359375 226.808594v210.882812c0 40.96875-33.339844 74.308594-74.308594 74.308594h-306.230469c-40.980468 0-74.320312-33.339844-74.320312-74.308594v-210.882812c0-40.96875 33.339844-74.308594 74.320312-74.308594h306.230469c40.96875 0 74.308594 33.339844 74.308594 74.308594zm0 0" fill="#00c8c8"/><path d="m455.359375 226.808594v210.882812c0 40.96875-33.339844 74.308594-74.308594 74.308594h-152.191406v-359.5h152.191406c40.96875 0 74.308594 33.339844 74.308594 74.308594zm0 0" fill="#00a1b3"/><path d="m134.6875 243.269531c-8.285156 0-15-6.71875-15-15v-100.601562c0-22.628907 18.40625-41.035157 41.03125-41.035157h27.933594c6.082031 0 11.035156-4.949218 11.035156-11.03125v-34.570312c0-6.082031-4.953125-11.03125-11.035156-11.03125h-173.148438c-8.285156 0-15-6.714844-15-15s6.714844-15 15-15h173.148438c22.625 0 41.035156 18.40625 41.035156 41.03125v34.570312c0 22.625-18.410156 41.03125-41.035156 41.03125h-27.933594c-6.082031 0-11.03125 4.949219-11.03125 11.03125v100.601563c0 8.285156-6.71875 15.003906-15 15.003906zm0 0" fill="#ffda2f"/><path d="m356.800781 302.277344v-17.132813c0-1.402343 1.132813-2.535156 2.535157-2.535156h21.699218c2.4375 0 4.410156-1.972656 4.410156-4.410156v-53.414063c0-2.433594-1.972656-4.40625-4.410156-4.40625h-119.921875c-2.433593 0-4.410156 1.972656-4.410156 4.40625v53.414063c0 2.4375 1.976563 4.410156 4.410156 4.410156h21.703125c1.398438 0 2.535156 1.136719 2.535156 2.535156v17.132813c0 1.402344 1.136719 2.539062 2.535157 2.539062h66.375c1.402343 0 2.539062-1.136718 2.539062-2.539062zm0 0" fill="#b0e1ff"/><path d="m170.839844 302.277344v-17.132813c0-1.402343 1.132812-2.535156 2.535156-2.535156h21.699219c2.4375 0 4.410156-1.972656 4.410156-4.410156v-53.414063c0-2.433594-1.972656-4.40625-4.410156-4.40625h-119.921875c-2.433594 0-4.410156 1.972656-4.410156 4.40625v53.414063c0 2.4375 1.976562 4.410156 4.410156 4.410156h21.703125c1.398437 0 2.535156 1.136719 2.535156 2.535156v17.132813c0 1.402344 1.136719 2.539062 2.535156 2.539062h66.375c1.402344 0 2.539063-1.136718 2.539063-2.539062zm0 0" fill="#daf0fa"/><path d="m356.679688 446.085938v-17.136719c0-1.398438 1.132812-2.535157 2.535156-2.535157h21.699218c2.4375 0 4.410157-1.972656 4.410157-4.40625v-53.417968c0-2.433594-1.972657-4.40625-4.410157-4.40625h-119.921874c-2.433594 0-4.410157 1.972656-4.410157 4.40625v53.417968c0 2.433594 1.972657 4.40625 4.410157 4.40625h21.699218c1.402344 0 2.539063 1.136719 2.539063 2.535157v17.136719c0 1.398437 1.132812 2.535156 2.535156 2.535156h66.375c1.402344 0 2.539063-1.136719 2.539063-2.535156zm0 0" fill="#b0e1ff"/><path d="m170.71875 446.085938v-17.136719c0-1.398438 1.132812-2.535157 2.535156-2.535157h21.699219c2.4375 0 4.410156-1.972656 4.410156-4.40625v-53.417968c0-2.433594-1.972656-4.40625-4.410156-4.40625h-119.921875c-2.433594 0-4.410156 1.972656-4.410156 4.40625v53.417968c0 2.433594 1.972656 4.40625 4.410156 4.40625h21.699219c1.402343 0 2.539062 1.136719 2.539062 2.535157v17.136719c0 1.398437 1.132813 2.535156 2.535157 2.535156h66.375c1.402343 0 2.539062-1.136719 2.539062-2.535156zm0 0" fill="#daf0fa"/></svg>