<svg height="512pt" viewBox="0 -3 512 512" width="512pt" xmlns="http://www.w3.org/2000/svg"><path d="m32 338.648438h144v160h-144zm0 0" fill="#ff636e"/><path d="m176 106.648438h144v392h-144zm0 0" fill="#ffee6e"/><path d="m320 242.648438h144v256h-144zm0 0" fill="#cbf7f7"/><path d="m296 106.648438h24v392h-24zm0 0" fill="#ffbc36"/><path d="m440 242.648438h24v256h-24zm0 0" fill="#64e1dc"/><path d="m152 338.648438h24v160h-24zm0 0" fill="#f03049"/><g fill="#231f20"><path d="m471.53125 491.121094v-176.472656h-15.0625v176.472656h-128.9375v-240.941406h128.9375v40.472656h15.0625v-55.535156h-144v-136h-159.0625v232h-56.46875v15.0625h56.46875v144.941406h-128.9375v-144.941406h48.46875v-15.0625h-63.53125v160.003906h-24.46875v15.0625h248v-15.0625h-64.46875v-376.941406h128.9375v376.941406h-40.46875v15.0625h240v-15.0625zm0 0"/><path d="m240.46875 28.832031v53.816407h15.0625v-53.816407l19.144531 19.144531 10.648438-10.652343-37.324219-37.324219-37.324219 37.324219 10.648438 10.652343zm0 0"/><path d="m384.46875 92.832031v117.816407h15.0625v-117.816407l19.140625 19.144531 10.652344-10.652343-37.324219-37.324219-37.324219 37.324219 10.648438 10.652343zm0 0"/><path d="m88.46875 196.832031v109.816407h15.0625v-109.816407l19.144531 19.144531 10.648438-10.652343-37.324219-37.324219-37.324219 37.324219 10.648438 10.652343zm0 0"/><path d="m224 211.117188v15.0625h48v-15.0625h-16.46875v-74.917969l-33.914062 11.304687 4.761718 14.292969 14.089844-4.695313v54.015626zm0 0"/><path d="m368.46875 315.117188v47.0625h47.53125v-15.0625h-32.46875v-16.933594h32v-63.066406h-47.0625v31.53125h15.0625v-16.46875h16.9375v32.9375zm0 0"/><path d="m72.46875 418.648438v23.53125h55.0625v-79.058594h-55.0625v23.527344h15.0625v-8.464844h24.9375v16.933594h-24.46875v15.0625h24.46875v16.9375h-24.9375v-8.46875zm0 0"/></g><path d="m424 459.121094h16v15.0625h-16zm0 0" fill="#fff"/><path d="m392 459.121094h16v15.0625h-16zm0 0" fill="#fff"/><path d="m280 459.121094h16v15.0625h-16zm0 0" fill="#fff"/><path d="m248 459.121094h16v15.0625h-16zm0 0" fill="#fff"/><path d="m136 459.121094h16v15.0625h-16zm0 0" fill="#fff"/><path d="m104 459.121094h16v15.0625h-16zm0 0" fill="#fff"/></svg>