<svg height="512pt" viewBox="-25 0 512 512" width="512pt" xmlns="http://www.w3.org/2000/svg"><path d="m278.523438 80.457031h-29.996094v-22.34375c0-32.042969 26.070312-58.113281 58.113281-58.113281v29.996094c-15.503906 0-28.117187 12.613281-28.117187 28.117187zm0 0" fill="#1d2951"/><path d="m278.523438 80.457031h-29.996094v-22.34375c0-32.042969 26.070312-58.113281 58.113281-58.113281v29.996094c-15.503906 0-28.117187 12.613281-28.117187 28.117187zm0 0" fill="#121d3c"/><path d="m213.851562 80.457031h-29.996093v-22.34375c0-15.503906-12.613281-28.117187-28.117188-28.117187v-29.996094c32.042969 0 58.113281 26.070312 58.113281 58.113281zm0 0" fill="#1d2951"/><path d="m391.78125 310.636719h70.597656v29.992187h-70.597656zm0 0" fill="#2c3a65"/><path d="m391.78125 310.636719h70.597656v29.992187h-70.597656zm0 0" fill="#1d2951"/><path d="m0 310.636719h70.597656v29.992187h-70.597656zm0 0" fill="#2c3a65"/><path d="m38.167969 197.527344 18.171875-23.867188 53.207031 40.507813-18.167969 23.867187zm0 0" fill="#2c3a65"/><path d="m352.84375 437.066406 18.167969-23.867187 53.210937 40.5-18.167968 23.867187zm0 0" fill="#2c3a65"/><path d="m352.84375 437.066406 18.167969-23.867187 53.210937 40.5-18.167968 23.867187zm0 0" fill="#1d2951"/><path d="m352.851562 214.179688 53.207032-40.503907 18.167968 23.867188-53.207031 40.503906zm0 0" fill="#2c3a65"/><path d="m352.851562 214.179688 53.207032-40.503907 18.167968 23.867188-53.207031 40.503906zm0 0" fill="#1d2951"/><path d="m38.171875 453.722656 53.199219-40.507812 18.171875 23.863281-53.203125 40.507813zm0 0" fill="#2c3a65"/><path d="m231.191406 59.511719c-58.191406 0-105.53125 47.339843-105.53125 105.527343 0 7.117188.667969 13.894532 2.039063 20.722657l2.417969 12.046875h202.148437l2.414063-12.046875c1.371093-6.832031 2.039062-13.609375 2.039062-20.722657 0-58.1875-47.339844-105.527343-105.527344-105.527343zm0 0" fill="#2c3a65"/><path d="m231.191406 59.511719v138.296875h101.074219l2.414063-12.046875c1.371093-6.832031 2.039062-13.609375 2.039062-20.722657 0-58.1875-47.339844-105.527343-105.527344-105.527343zm0 0" fill="#1d2951"/><path d="m231.191406 139.261719c-96.820312 0-175.59375 83.605469-175.59375 186.371093 0 102.761719 78.773438 186.367188 175.59375 186.367188 96.820313 0 175.589844-83.605469 175.589844-186.367188 0-102.765624-78.769531-186.371093-175.589844-186.371093zm0 0" fill="#fd4c0c"/><path d="m231.191406 139.261719v372.738281c96.820313 0 175.589844-83.605469 175.589844-186.367188 0-102.765624-78.769531-186.371093-175.589844-186.371093zm0 0" fill="#de2c1b"/><g fill="#1d2951"><path d="m318.175781 310.632812h29.996094v30h-29.996094zm0 0"/><path d="m268.183594 240.640625h29.992187v29.996094h-29.992187zm0 0"/><path d="m268.183594 380.625h29.992187v30h-29.992187zm0 0"/><path d="m113.203125 310.632812h29.996094v30h-29.996094zm0 0"/><path d="m163.199219 240.640625h29.992187v29.996094h-29.992187zm0 0"/><path d="m163.199219 380.625h29.992187v30h-29.992187zm0 0"/></g><path d="m318.175781 310.632812h29.996094v30h-29.996094zm0 0" fill="#121d3c"/><path d="m268.183594 240.640625h29.992187v29.996094h-29.992187zm0 0" fill="#121d3c"/><path d="m268.183594 380.625h29.992187v30h-29.992187zm0 0" fill="#121d3c"/></svg>