<svg height="512pt" viewBox="0 0 512 512" width="512pt" xmlns="http://www.w3.org/2000/svg"><path d="m512 256c0 141.386719-114.613281 256-256 256-7.753906 0-15.414062-.34375-22.988281-1.023438-29.058594-2.582031-56.714844-10.019531-82.160157-21.492187-6.058593-2.738281-11.996093-5.707031-17.792968-8.894531h-.011719c-79.296875-43.5-133.046875-127.769532-133.046875-224.589844 0-141.386719 114.613281-256 256-256s256 114.613281 256 256zm0 0" fill="#c9ebf7"/><path d="m222.1875 268.230469h-23.578125l22.777344-6.105469c3.132812-.835938 4.992187-4.058594 4.152343-7.191406l-.988281-3.679688c-.839843-3.132812-4.058593-4.992187-7.191406-4.15625l-22.777344 6.105469 20.421875-11.789063c2.808594-1.625 3.773438-5.214843 2.148438-8.023437l-1.90625-3.300781c-1.621094-2.808594-5.210938-3.773438-8.019532-2.152344l-20.421874 11.792969 16.675781-16.675781c2.292969-2.292969 2.292969-6.011719 0-8.304688l-2.695313-2.695312c-2.296875-2.292969-6.011718-2.292969-8.304687 0l-16.675781 16.675781 11.789062-20.421875c1.621094-2.808594.660156-6.398438-2.148438-8.023438l-3.300781-1.902344c-2.808593-1.625-6.402343-.660156-8.023437 2.148438l-11.789063 20.421875 6.101563-22.777344c.839844-3.132812-1.019532-6.351562-4.152344-7.191406l-3.679688-.988281c-3.132812-.839844-6.355468 1.019531-7.195312 4.152344l-6.101562 22.777343v-23.578125c0-3.246094-2.628907-5.875-5.871094-5.875h-3.8125c-3.242188 0-5.871094 2.628906-5.871094 5.875v23.578125l-6.105469-22.777343c-.839843-3.132813-4.058593-4.992188-7.191406-4.152344l-3.683594.988281c-3.132812.839844-4.992187 4.058594-4.152343 7.191406l6.105468 22.777344-11.792968-20.421875c-1.621094-2.808594-5.210938-3.769531-8.019532-2.148438l-3.304687 1.90625c-2.808594 1.621094-3.769531 5.210938-2.148438 8.019532l11.792969 20.421875-16.675781-16.671875c-2.292969-2.296875-6.011719-2.296875-8.304688 0l-2.695312 2.695312c-2.292969 2.292969-2.292969 6.011719 0 8.300782l16.675781 16.675781-20.421875-11.789063c-2.808594-1.621094-6.402344-.660156-8.023437 2.148438l-1.90625 3.300781c-1.621094 2.808594-.65625 6.402344 2.152343 8.023437l20.417969 11.789063-22.773438-6.101563c-3.132812-.839843-6.351562 1.019532-7.195312 4.152344l-.984375 3.679688c-.839844 3.132812 1.019531 6.355468 4.152344 7.195312l22.777343 6.101563h-23.578124c-3.246094 0-5.875 2.628906-5.875 5.871093v3.8125c0 3.242188 2.628906 5.871094 5.875 5.871094h23.578124l-22.773437 6.105469c-3.132813.839844-4.992187 4.058594-4.152344 7.191406l.984375 3.683594c.839844 3.132813 4.058594 4.992187 7.191406 4.152344l22.777344-6.105469-20.421875 11.792969c-2.808593 1.621093-3.769531 5.210937-2.148437 8.019531l1.90625 3.304688c1.621094 2.808593 5.210937 3.769531 8.019531 2.148437l20.421875-11.792969-16.671875 16.675782c-2.296875 2.292968-2.296875 6.011718 0 8.304687l2.695313 2.695313c2.292968 2.292968 6.011718 2.292968 8.300781 0l16.675781-16.675782-11.789062 20.421875c-1.621094 2.808594-.660157 6.398438 2.148437 8.019531l3.300781 1.90625c2.808594 1.621094 6.402344.660157 8.023438-2.148437l11.789062-20.421875-6.101562 22.777344c-.839844 3.132812 1.019531 6.351562 4.152344 7.191406l3.679687.988281c3.132813.839844 6.355469-1.019531 7.195313-4.152343l6.101562-22.777344v23.578125c0 3.246093 2.628906 5.875 5.871094 5.875h3.8125c3.242187 0 5.871094-2.628907 5.871094-5.875v-23.578125l6.105468 22.777344c.839844 3.132812 4.058594 4.992187 7.191406 4.152343l3.683594-.988281c3.132813-.839844 4.992188-4.058594 4.152344-7.191406l-6.105469-22.777344 11.792969 20.421875c1.621094 2.808594 5.210938 3.773437 8.019531 2.148437l3.304688-1.90625c2.808593-1.621093 3.769531-5.210937 2.148437-8.019531l-11.792968-20.421875 16.675781 16.675782c2.292969 2.292968 6.011719 2.292968 8.304687 0l2.695313-2.695313c2.292969-2.296875 2.292969-6.011719 0-8.308594l-16.671875-16.671875 20.417968 11.789063c2.808594 1.625 6.402344.660156 8.023438-2.148438l1.90625-3.300781c1.621094-2.808594.660156-6.398438-2.148438-8.023438l-20.421874-11.789062 22.777343 6.101562c3.132813.839844 6.351563-1.019531 7.191407-4.152343l.984374-3.679688c.839844-3.132812-1.019531-6.351562-4.152343-7.191406l-22.777344-6.105469h23.582031c3.242188 0 5.871094-2.628906 5.871094-5.871094v-3.8125c-.003906-3.242187-2.632812-5.871093-5.875-5.871093zm0 0" fill="#fcbc77"/><path d="m224.421875 276.007812c0 46.886719-38.007813 84.894532-84.894531 84.894532-46.886719 0-84.894532-38.007813-84.894532-84.894532 0-46.886718 38.007813-84.894531 84.894532-84.894531 46.886718 0 84.894531 38.007813 84.894531 84.894531zm0 0" fill="#fcbc77"/><path d="m218.167969 276.007812c0 43.429688-35.207031 78.640626-78.640625 78.640626s-78.640625-35.210938-78.640625-78.640626c0-43.433593 35.207031-78.640624 78.640625-78.640624s78.640625 35.207031 78.640625 78.640624zm0 0" fill="#fee175"/><path d="m205.160156 276.007812c0 36.246094-29.386718 65.632813-65.632812 65.632813s-65.632813-29.386719-65.632813-65.632813c0-36.246093 29.386719-65.632812 65.632813-65.632812s65.632812 29.386719 65.632812 65.632812zm0 0" fill="#fcbc77"/><path d="m196.097656 276.011719c0 2.808593-.207031 5.574219-.605468 8.277343-3.609376 24.609376-23.074219 44.078126-47.6875 47.683594-2.703126.402344-5.460938.605469-8.277344.605469-8.621094 0-16.796875-1.929687-24.113282-5.390625-4.90625-2.304688-9.429687-5.3125-13.433593-8.871094-3.011719-2.667968-5.730469-5.660156-8.109375-8.910156-6.863282-9.359375-10.914063-20.90625-10.914063-33.394531 0-.101563 0-.191407.007813-.289063.148437-31.023437 25.265625-56.132812 56.28125-56.28125.09375-.007812.191406-.007812.28125-.007812 12.5 0 24.042968 4.050781 33.40625 10.917968 3.25 2.375 6.242187 5.097657 8.902344 8.109376 3.566406 4.011718 6.5625 8.527343 8.867187 13.433593 3.460937 7.320313 5.394531 15.492188 5.394531 24.117188zm0 0" fill="#fee175"/><g fill="#ffeeb8"><path d="m172.929688 230.355469-79.058594 79.050781c-6.863282-9.359375-10.914063-20.902344-10.914063-33.394531 0-.097657 0-.191407.007813-.289063l56.28125-56.28125c.09375-.007812.191406-.007812.28125-.007812 12.496094 0 24.042968 4.050781 33.402344 10.921875zm0 0"/><path d="m190.703125 251.898438-75.289063 75.289062c-4.90625-2.304688-9.429687-5.3125-13.433593-8.871094l79.855469-79.851562c3.566406 4.007812 6.5625 8.523437 8.867187 13.433594zm0 0"/><path d="m195.492188 284.289062c-3.609376 24.613282-23.074219 44.078126-47.6875 47.6875zm0 0"/></g><path d="m156.828125 309.878906c-11.0625 6.269532-23.34375 6.082032-26.882813.300782-1.878906-3.074219-1.933593-9.25 1.5-11.347657 3.796876-2.324219 10.128907 1.128907 17.535157-1.785156l-8.953125-14.640625c-10.246094 1.925781-22.382813 4.007812-29.460938-7.558594-7.019531-11.476562-1.894531-22.183594 6.855469-29.398437l-1.550781-2.527344c-.773438-1.265625-.046875-3.324219 1.941406-4.542969 1.71875-1.050781 4.152344-.925781 4.925781.339844l1.382813 2.261719c5.710937-3.25 17.171875-8.269531 20.984375-2.035157 1.492187 2.441407 2.90625 8.40625-1.070313 10.835938-2.980468 1.824219-6.46875-.015625-12.617187 3.125l8.070312 13.191406c10.101563-1.957031 22.277344-3.566406 29.738281 8.628906 6.855469 11.207032 3.769532 22.40625-5.75 30.589844l1.601563 2.621094c.773437 1.261719-.222656 3.488281-1.941406 4.539062-1.988281 1.214844-4.152344.925782-4.925781-.339843zm-24.628906-42.300781-6.578125-10.753906c-3.570313 3.300781-4.015625 6.429687-2.6875 8.597656 1.601562 2.621094 4.945312 2.8125 9.265625 2.15625zm15.285156 13.621094 7.40625 12.109375c2.628906-2.601563 4.019531-5.8125 2.027344-9.066406-1.824219-2.980469-5.242188-3.496094-9.433594-3.042969zm0 0" fill="#f2a85f"/><path d="m382.597656 392.289062h-23.578125l22.777344-6.101562c3.132813-.839844 4.988281-4.058594 4.152344-7.191406l-.988281-3.683594c-.839844-3.132812-4.058594-4.992188-7.191407-4.152344l-22.777343 6.101563 20.421874-11.789063c2.808594-1.621094 3.769532-5.210937 2.148438-8.019531l-1.90625-3.304687c-1.621094-2.808594-5.210938-3.769532-8.019531-2.148438l-20.421875 11.789062 16.675781-16.671874c2.292969-2.292969 2.292969-6.011719 0-8.304688l-2.699219-2.695312c-2.292968-2.292969-6.007812-2.292969-8.304687 0l-16.671875 16.671874 11.789062-20.417968c1.621094-2.808594.660156-6.402344-2.148437-8.023438l-3.300781-1.90625c-2.808594-1.621094-6.402344-.660156-8.023438 2.148438l-11.789062 20.421875 6.101562-22.777344c.839844-3.132813-1.019531-6.351563-4.152344-7.191406l-3.683594-.984375c-3.132812-.839844-6.351562 1.019531-7.191406 4.152344l-6.101562 22.777343v-23.582031c0-3.242188-2.628906-5.871094-5.875-5.871094h-3.808594c-3.246094 0-5.875 2.628906-5.875 5.871094v23.582031l-6.101562-22.777343c-.839844-3.132813-4.058594-4.992188-7.191407-4.152344l-3.683593.984375c-3.132813.839843-4.992188 4.058593-4.152344 7.191406l6.105468 22.78125-11.792968-20.421875c-1.621094-2.808594-5.210938-3.773438-8.019532-2.152344l-3.304687 1.90625c-2.808594 1.621094-3.769531 5.214844-2.148437 8.023438l11.789062 20.421875-16.671875-16.675781c-2.292969-2.292969-6.011719-2.292969-8.304687 0l-2.695313 2.695312c-2.292969 2.292969-2.292969 6.011719 0 8.304688l16.675781 16.675781-20.421875-11.792969c-2.808593-1.621094-6.402343-.660156-8.023437 2.152344l-1.90625 3.300781c-1.621094 2.808594-.660156 6.398437 2.148437 8.019531l20.421875 11.792969-22.777344-6.105469c-3.128906-.835937-6.351562 1.019532-7.191406 4.152344l-.984375 3.683594c-.839843 3.132812 1.019531 6.351562 4.152344 7.191406l22.777344 6.105469h-23.582031c-3.242188 0-5.871094 2.628906-5.871094 5.871093v3.8125c0 3.242188 2.628906 5.871094 5.871094 5.871094h23.582031l-22.777344 6.101563c-3.132813.839843-4.992187 4.0625-4.152344 7.195312l.984375 3.679688c.839844 3.132812 4.0625 4.992187 7.191406 4.152343l22.777344-6.101562-20.421875 11.789062c-2.808593 1.621094-3.769531 5.214844-2.148437 8.023438l1.90625 3.300781c1.621094 2.808594 5.214844 3.769531 8.023437 2.148438l20.421875-11.789063-16.675781 16.675782c-2.292969 2.292968-2.292969 6.007812 0 8.300781l2.695313 2.695312c2.292968 2.296875 6.011718 2.296875 8.304687 0l16.671875-16.671875-11.789062 20.421875c-1.621094 2.808594-.660157 6.398438 2.148437 8.019531l3.304687 1.90625c2.808594 1.621094 6.398438.660157 8.019532-2.148437l11.792968-20.421875-6.105468 22.777344c-.839844 3.132812 1.019531 6.351562 4.152344 7.191406l3.683593.988281c3.132813.839844 6.351563-1.019531 7.191407-4.152343l6.101562-22.777344v23.578125c0 3.246093 2.628906 5.875 5.875 5.875h3.808594c3.246094 0 5.875-2.628907 5.875-5.875v-23.582031l6.101562 22.777343c.839844 3.132813 4.058594 4.992188 7.191406 4.152344l3.683594-.984375c3.132813-.839844 4.992188-4.058594 4.152344-7.191406l-6.101562-22.777344 11.789062 20.421875c1.621094 2.808594 5.214844 3.769531 8.023438 2.148437l3.300781-1.90625c2.808593-1.621093 3.769531-5.214843 2.148437-8.023437l-11.789062-20.417969 16.671875 16.671875c2.296875 2.292969 6.011719 2.292969 8.304687 0l2.699219-2.695312c2.292969-2.292969 2.292969-6.011719 0-8.304688l-16.675781-16.671875 20.421875 11.789063c2.808593 1.621093 6.398437.660156 8.023437-2.148438l1.90625-3.300781c1.621094-2.808594.65625-6.402344-2.152344-8.023438l-20.421874-11.789062 22.777343 6.101562c3.132813.839844 6.351563-1.019531 7.191407-4.152343l.988281-3.683594c.839843-3.132813-1.019531-6.351563-4.152344-7.191406l-22.777344-6.101563h23.582031c3.242188 0 5.871094-2.628906 5.871094-5.875v-3.808594c0-3.246093-2.628906-5.875-5.875-5.875zm0 0" fill="#fcbc77"/><path d="m384.828125 400.070312c0 46.882813-38.007813 84.890626-84.890625 84.890626-46.886719 0-84.894531-38.007813-84.894531-84.890626 0-46.886718 38.007812-84.894531 84.894531-84.894531 46.882812 0 84.890625 38.007813 84.890625 84.894531zm0 0" fill="#fcbc77"/><path d="m378.578125 400.070312c0 43.429688-35.210937 78.636719-78.640625 78.636719-43.433594 0-78.640625-35.207031-78.640625-78.636719 0-43.433593 35.207031-78.640624 78.640625-78.640624 43.429688 0 78.640625 35.207031 78.640625 78.640624zm0 0" fill="#fee175"/><path d="m365.570312 400.070312c0 36.246094-29.386718 65.628907-65.632812 65.628907-36.25 0-65.632812-29.382813-65.632812-65.628907 0-36.25 29.382812-65.632812 65.632812-65.632812 36.246094 0 65.632812 29.382812 65.632812 65.632812zm0 0" fill="#fcbc77"/><path d="m356.503906 400.070312c0 2.808594-.203125 5.574219-.601562 8.277344-3.609375 24.613282-23.074219 44.078125-47.6875 47.6875-2.703125.398438-5.460938.605469-8.277344.605469-8.625 0-16.796875-1.933594-24.113281-5.394531-4.910157-2.300782-9.429688-5.308594-13.433594-8.867188-3.011719-2.671875-5.730469-5.660156-8.109375-8.914062-6.863281-9.359375-10.914062-20.902344-10.914062-33.394532 0-.097656 0-.1875.007812-.289062.148438-31.023438 25.265625-56.132812 56.28125-56.28125.089844-.007812.191406-.007812.28125-.007812 12.5 0 24.042969 4.054687 33.402344 10.921874 3.253906 2.371094 6.242187 5.097657 8.90625 8.109376 3.566406 4.007812 6.5625 8.523437 8.867187 13.433593 3.460938 7.316407 5.390625 15.492188 5.390625 24.113281zm0 0" fill="#fee175"/><path d="m333.339844 354.414062-79.058594 79.050782c-6.863281-9.359375-10.914062-20.902344-10.914062-33.394532 0-.097656 0-.1875.007812-.289062l56.28125-56.28125c.089844-.007812.191406-.007812.28125-.007812 12.5.003906 24.042969 4.054687 33.402344 10.921874zm0 0" fill="#ffeeb8"/><path d="m351.113281 375.957031-75.289062 75.289063c-4.910157-2.300782-9.429688-5.308594-13.433594-8.867188l79.851563-79.855468c3.570312 4.011718 6.566406 8.527343 8.871093 13.433593zm0 0" fill="#ffeeb8"/><path d="m355.902344 408.351562c-3.609375 24.609376-23.074219 44.074219-47.6875 47.683594zm0 0" fill="#ffeeb8"/><path d="m280.199219 432.578125c-11.148438-6.121094-17.4375-16.671875-14.375-22.71875 1.628906-3.214844 6.855469-6.5 10.445312-4.683594 3.96875 2.011719 4.359375 9.214844 10.726563 13.984375l7.757812-15.304687c-7.019531-7.710938-15.164062-16.945313-9.035156-29.039063 6.078125-12 17.882812-13.265625 28.617188-9.605468l1.339843-2.648438c.671875-1.320312 2.804688-1.785156 4.882813-.730469 1.796875.910157 2.96875 3.046875 2.296875 4.371094l-1.195313 2.363281c5.761719 3.15625 16.050782 10.269532 12.746094 16.789063-1.289062 2.550781-5.625 6.886719-9.78125 4.78125-3.121094-1.582031-3.382812-5.515625-9.285156-9.097657l-6.992188 13.792969c6.972656 7.570313 14.738282 17.085938 8.273438 29.839844-5.9375 11.71875-17.085938 14.976563-29.050782 11.167969l-1.386718 2.742187c-.671875 1.320313-3.089844 1.640625-4.882813.730469-2.082031-1.054688-2.96875-3.046875-2.300781-4.371094zm23.0625-43.175781 5.699219-11.242188c-4.683594-1.304687-7.582032-.039062-8.730469 2.226563-1.386719 2.742187.207031 5.6875 3.03125 9.015625zm-3.566407 20.164062-6.414062 12.660156c3.59375.871094 7.054688.367188 8.78125-3.03125 1.578125-3.117187.222656-6.300781-2.367188-9.628906zm0 0" fill="#f2a85f"/><path d="m472.777344 304.925781h-23.582032l22.777344-6.105469c3.132813-.839843 4.992188-4.058593 4.152344-7.191406l-.988281-3.683594c-.835938-3.132812-4.058594-4.988281-7.191407-4.152343l-22.777343 6.105469 20.421875-11.792969c2.808594-1.621094 3.773437-5.210938 2.148437-8.019531l-1.902343-3.300782c-1.625-2.808594-5.214844-3.773437-8.023438-2.152344l-20.421875 11.792969 16.675781-16.675781c2.292969-2.292969 2.292969-6.011719 0-8.304688l-2.695312-2.695312c-2.292969-2.292969-6.011719-2.292969-8.304688 0l-16.675781 16.675781 11.789063-20.421875c1.625-2.808594.660156-6.402344-2.148438-8.023437l-3.300781-1.90625c-2.808594-1.621094-6.402344-.65625-8.023438 2.152343l-11.789062 20.421876 6.101562-22.777344c.839844-3.132813-1.019531-6.351563-4.152343-7.191406l-3.679688-.988282c-3.132812-.839844-6.351562 1.019532-7.195312 4.152344l-6.101563 22.777344v-23.582032c0-3.242187-2.628906-5.871093-5.871094-5.871093h-3.8125c-3.242187 0-5.871093 2.628906-5.871093 5.871093v23.582032l-6.105469-22.777344c-.839844-3.132812-4.058594-4.992188-7.191407-4.152344l-3.683593.988282c-3.132813.835937-4.988281 4.058593-4.152344 7.191406l6.105469 22.777344-11.792969-20.421876c-1.621094-2.808593-5.210937-3.769531-8.019531-2.148437l-3.300782 1.90625c-2.808593 1.621094-3.773437 5.210937-2.152343 8.019531l11.792969 20.421875-16.675782-16.675781c-2.292968-2.292969-6.011718-2.292969-8.304687 0l-2.695313 2.699219c-2.292968 2.292969-2.292968 6.007812 0 8.300781l16.675782 16.675781-20.421876-11.789062c-2.808593-1.625-6.398437-.660157-8.023437 2.148437l-1.90625 3.300782c-1.621094 2.808593-.65625 6.398437 2.152344 8.023437l20.421875 11.789063-22.777344-6.101563c-3.132812-.839844-6.351562 1.019531-7.191406 4.152344l-.988282 3.679687c-.839843 3.132813 1.019532 6.351563 4.152344 7.191406l22.777344 6.105469h-23.582031c-3.242188 0-5.871094 2.628907-5.871094 5.871094v3.8125c0 3.242187 2.628906 5.871094 5.871094 5.871094h23.582031l-22.777344 6.105469c-3.132812.839843-4.992187 4.058593-4.152344 7.191406l.988282 3.683594c.835937 3.132812 4.058594 4.988281 7.191406 4.152343l22.777344-6.105469-20.421875 11.792969c-2.808594 1.621094-3.773438 5.210938-2.152344 8.019531l1.90625 3.300782c1.625 2.808594 5.214844 3.773437 8.023437 2.152344l20.421876-11.792969-16.675782 16.675781c-2.292968 2.292969-2.292968 6.011719 0 8.304688l2.695313 2.695312c2.292969 2.292969 6.011719 2.292969 8.304687 0l16.675782-16.675781-11.792969 20.421875c-1.621094 2.808594-.65625 6.398437 2.152343 8.023437l3.300782 1.902344c2.808594 1.625 6.398437.660156 8.019531-2.148437l11.792969-20.421876-6.105469 22.777344c-.835937 3.132813 1.019531 6.355469 4.152344 7.195313l3.683593.984375c3.132813.839844 6.351563-1.019532 7.191407-4.152344l6.105469-22.777344v23.582032c0 3.242187 2.628906 5.871093 5.871093 5.871093h3.8125c3.242188 0 5.871094-2.628906 5.871094-5.871093v-23.582032l6.101563 22.777344c.839843 3.132812 4.0625 4.992188 7.195312 4.152344l3.679688-.984375c3.132812-.839844 4.992187-4.0625 4.152343-7.195313l-6.101562-22.773437 11.789062 20.421875c1.621094 2.808594 5.214844 3.769531 8.023438 2.148437l3.300781-1.90625c2.808594-1.621093 3.773438-5.214843 2.148438-8.023437l-11.789063-20.421875 16.675781 16.675781c2.292969 2.292969 6.011719 2.292969 8.304688 0l2.695312-2.695312c2.292969-2.292969 2.292969-6.011719 0-8.304688l-16.675781-16.675781 20.421875 11.792969c2.808594 1.621093 6.402344.660156 8.023438-2.148438l1.90625-3.304688c1.621093-2.808593.660156-6.398437-2.148438-8.019531l-20.421875-11.792969 22.773437 6.105469c3.132813.839844 6.355469-1.019531 7.195313-4.152343l.984375-3.683594c.839844-3.132813-1.019531-6.351563-4.152344-7.191406l-22.777344-6.101563h23.582032c3.242187 0 5.871094-2.628906 5.871094-5.875v-3.8125c0-3.242187-2.628907-5.871094-5.871094-5.871094zm0 0" fill="#fcbc77"/><path d="m475.007812 312.703125c0 46.882813-38.007812 84.890625-84.894531 84.890625-46.882812 0-84.890625-38.007812-84.890625-84.890625 0-46.886719 38.007813-84.894531 84.890625-84.894531 46.886719 0 84.894531 38.007812 84.894531 84.894531zm0 0" fill="#fcbc77"/><path d="m468.753906 312.703125c0 43.429687-35.207031 78.640625-78.640625 78.640625-43.429687 0-78.640625-35.210938-78.640625-78.640625 0-43.433594 35.210938-78.640625 78.640625-78.640625 43.433594 0 78.640625 35.207031 78.640625 78.640625zm0 0" fill="#fee175"/><path d="m455.746094 312.703125c0 36.246094-29.386719 65.632813-65.632813 65.632813-36.246093 0-65.632812-29.386719-65.632812-65.632813 0-36.25 29.386719-65.632813 65.632812-65.632813 36.246094 0 65.632813 29.382813 65.632813 65.632813zm0 0" fill="#fcbc77"/><path d="m446.683594 312.703125c0 2.808594-.203125 5.578125-.605469 8.28125-3.609375 24.609375-23.074219 44.074219-47.6875 47.683594-2.703125.402343-5.460937.605469-8.277344.605469-8.621093 0-16.796875-1.929688-24.113281-5.394532-4.90625-2.300781-9.429688-5.308594-13.433594-8.867187-3.011718-2.667969-5.730468-5.660157-8.109375-8.910157-6.859375-9.359374-10.910156-20.90625-10.910156-33.398437 0-.097656 0-.1875.003906-.285156.148438-31.023438 25.265625-56.136719 56.28125-56.28125.09375-.007813.191407-.007813.28125-.007813 12.5 0 24.042969 4.050782 33.40625 10.917969 3.25 2.371094 6.242188 5.097656 8.902344 8.109375 3.566406 4.011719 6.566406 8.523438 8.867187 13.433594 3.460938 7.320312 5.394532 15.492187 5.394532 24.113281zm0 0" fill="#fee175"/><path d="m423.515625 267.046875-79.058594 79.054687c-6.859375-9.359374-10.910156-20.90625-10.910156-33.398437 0-.097656 0-.1875.003906-.285156l56.28125-56.28125c.09375-.007813.191407-.007813.28125-.007813 12.5 0 24.042969 4.050782 33.402344 10.917969zm0 0" fill="#ffeeb8"/><path d="m441.289062 288.589844-75.289062 75.289062c-4.90625-2.300781-9.429688-5.308594-13.433594-8.867187l79.855469-79.851563c3.566406 4.007813 6.566406 8.523438 8.867187 13.429688zm0 0" fill="#ffeeb8"/><path d="m446.078125 320.984375c-3.609375 24.609375-23.074219 44.074219-47.6875 47.683594zm0 0" fill="#ffeeb8"/><path d="m376.15625 348.082031c-12.019531-4.148437-20.003906-13.484375-18.007812-19.960937 1.058593-3.441406 5.65625-7.566406 9.503906-6.382813 4.25 1.3125 5.851562 8.34375 12.9375 11.972657l5.054687-16.402344c-8.21875-6.410156-17.808593-14.132813-13.816406-27.089844 3.964844-12.855469 15.382813-16.097656 26.578125-14.308594l.875-2.832031c.4375-1.417969 2.460938-2.234375 4.691406-1.550781 1.921875.59375 3.4375 2.503906 3.003906 3.921875l-.78125 2.53125c6.210938 2.136719 17.558594 7.40625 15.402344 14.390625-.839844 2.734375-4.378906 7.738281-8.832031 6.367187-3.34375-1.03125-4.265625-4.863281-10.691406-7.398437l-4.554688 14.78125c8.152344 6.28125 17.414063 14.34375 13.199219 28.011718-3.867188 12.550782-14.304688 17.644532-26.742188 15.917969l-.90625 2.933594c-.4375 1.417969-2.765624 2.140625-4.6875 1.546875-2.226562-.683594-3.441406-2.5-3.003906-3.917969zm15.433594-46.453125 3.710937-12.042968c-4.835937-.496094-7.476562 1.242187-8.222656 3.667968-.90625 2.9375 1.164063 5.570313 4.511719 8.375zm-.105469 20.472656-4.183594 13.566407c3.691407.25 7.019531-.832031 8.140625-4.472657 1.03125-3.34375-.84375-6.246093-3.957031-9.09375zm0 0" fill="#f2a85f"/><path d="m271.671875 94.363281v351.066407c0 28.109374-15.578125 52.902343-38.660156 65.546874-29.058594-2.582031-56.714844-10.019531-82.160157-21.492187-6.058593-2.738281-11.996093-5.707031-17.792968-8.894531h-.011719c-2.394531-4.542969-4.335937-9.371094-5.746094-14.410156-2.789062-9.945313 4.722657-19.808594 15.054688-19.808594h.105469c7.085937 0 13.144531 4.796875 15.097656 11.609375 5.140625 17.949219 21.902344 31.03125 41.589844 30.5625 23.027343-.542969 41.179687-19.925781 41.179687-42.96875v-351.210938zm0 0" fill="#f1f4fe"/><path d="m211.402344 488.542969c23.027344-.542969 41.179687-19.925781 41.179687-42.96875v-351.210938h-12.253906v351.210938c0 21.328125-15.558594 39.511719-36.136719 42.527343 2.347656.347657 4.757813.5 7.210938.441407zm0 0" fill="#c5cae2"/><path d="m271.671875 94.363281v143.726563c-4.941406-1.578125-10.207031-2.421875-15.671875-2.421875s-10.730469.84375-15.671875 2.421875v-143.726563zm0 0" fill="#c5cae2"/><path d="m494.730469 246.347656c-7.664063-18.84375-26.15625-32.132812-47.753907-32.132812-15.699218 0-29.761718 7.019531-39.195312 18.105468-3.5625 4.160157-6.457031 8.878907-8.542969 14.027344-2.191406-5.390625-5.269531-10.3125-9.058593-14.613281-9.441407-10.746094-23.269532-17.519531-38.691407-17.519531-15.609375 0-29.597656 6.949218-39.042969 17.917968-3.632812 4.195313-6.585937 8.988282-8.707031 14.214844-2.15625-5.308594-5.179687-10.171875-8.882812-14.425781-9.445313-10.851563-23.351563-17.707031-38.855469-17.707031-15.515625 0-29.421875 6.855468-38.867188 17.707031-3.703124 4.253906-6.726562 9.117187-8.882812 14.425781-2.121094-5.226562-5.074219-10.019531-8.707031-14.214844-9.445313-10.96875-23.4375-17.917968-39.042969-17.917968-15.421875 0-29.25 6.773437-38.679688 17.507812-3.796874 4.300782-6.867187 9.234375-9.058593 14.625-2.085938-5.144531-4.992188-9.867187-8.542969-14.027344-9.445312-11.085937-23.507812-18.105468-39.207031-18.105468-21.597657 0-40.085938 13.289062-47.738281 32.132812 0-114.109375 80.054687-209.527344 187.074218-233.128906 16.628906-3.667969 33.910156-5.601562 51.652344-5.601562s35.023438 1.933593 51.652344 5.601562c107.007812 23.601562 187.078125 119.019531 187.078125 233.128906zm0 0" fill="#f974ac"/><path d="m255.996094 7.617188c-79.109375 0-143.242188 106.878906-143.242188 238.730468-7.664062-18.84375-26.152344-32.132812-47.75-32.132812s-40.085937 13.289062-47.738281 32.132812c0-131.851562 106.878906-238.730468 238.730469-238.730468zm0 0" fill="#ec4081"/><path d="m447.226562 91.035156c-35.03125-43.085937-84.019531-73.363281-137.933593-85.253906-17.199219-3.792969-34.953125-5.703125-52.710938-5.7460938-.195312-.0078124-.386719-.0351562-.582031-.0351562s-.386719.0273438-.582031.0351562c-17.757813.0429688-35.511719 1.9531248-52.710938 5.7460938-53.917969 11.890625-102.90625 42.167969-137.9375 85.253906-35.542969 43.710938-55.113281 98.867188-55.113281 155.3125 0 4.207032 3.410156 7.613282 7.613281 7.613282 4.207031 0 7.617188-3.410157 7.617188-7.613282 0-52.953125 18.359375-104.699218 51.699219-145.699218 29.269531-36.003907 68.917968-62.457032 112.960937-75.699219-19.925781 15.914062-37.640625 38.964843-51.589844 67.550781-21.160156 43.378906-32.8125 98.015625-32.8125 153.847656 0 4.207032 3.410157 7.613282 7.613281 7.613282 4.207032 0 7.617188-3.410157 7.617188-7.613282 0-108.101562 45.109375-203.136718 107.261719-225.980468 1.714843-.628907 3.441406-1.183594 5.171875-1.695313-10.464844 19.328125-17.292969 50.773437-21.386719 75.945313-6.949219 42.75-10.777344 96.632812-10.777344 151.726562 0 4.207031 3.410157 7.617188 7.613281 7.617188 4.207032 0 7.617188-3.410157 7.617188-7.617188 0-54.296875 3.757812-107.316406 10.582031-149.28125 6.460938-39.742188 15.519531-68.433594 24.855469-78.730469 1.65625-1.828125 3.242188-2.917969 4.414062-3.066406.039063 0 .074219-.003906.113282-.003906h.316406c.039062 0 .074219.003906.113281.003906 1.171875.148437 2.757813 1.238281 4.414063 3.070313 9.335937 10.292968 18.394531 38.988281 24.855468 78.726562 6.824219 41.96875 10.582032 94.984375 10.582032 149.285156 0 4.207032 3.410156 7.613282 7.617187 7.613282 4.203125 0 7.613281-3.410157 7.613281-7.613282 0-55.09375-3.828124-108.976562-10.777343-151.726562-4.09375-25.175782-10.921875-56.621094-21.386719-75.949219 1.730469.515625 3.457031 1.066406 5.175781 1.699219 62.148438 22.839844 107.257813 117.878906 107.257813 225.976562 0 4.207032 3.410156 7.617188 7.617187 7.617188s7.617188-3.410156 7.617188-7.617188c0-55.832031-11.65625-110.46875-32.820313-153.84375-13.945312-28.589844-31.664062-51.640625-51.585937-67.554687 44.039062 13.242187 83.683593 39.699219 112.957031 75.699219 33.339844 41.003906 51.703125 92.746093 51.703125 145.699218 0 4.207032 3.410156 7.617188 7.617187 7.617188 4.203126 0 7.613282-3.410156 7.613282-7.617188.003906-56.441406-19.570313-111.597656-55.113282-155.3125zm0 0" fill="#d12770"/><path d="m271.671875 394.375v51.054688c0 28.109374-15.578125 52.902343-38.660156 65.546874-29.058594-2.582031-56.714844-10.019531-82.160157-21.492187-6.058593-2.738281-11.996093-5.707031-17.792968-8.894531h-.011719c-2.394531-4.542969-4.335937-9.371094-5.746094-14.410156-2.789062-9.945313 4.722657-19.808594 15.054688-19.808594h.105469c7.085937 0 13.144531 4.796875 15.097656 11.609375 5.140625 17.949219 21.902344 31.03125 41.589844 30.5625 1.710937-.042969 3.394531-.1875 5.046874-.441407h.007813c20.574219-3.007812 36.125-21.199218 36.125-42.527343v-51.199219zm0 0" fill="#3f4b4f"/><path d="m150.851562 489.484375c-6.058593-2.738281-12.003906-5.707031-17.804687-8.894531-2.394531-4.542969-4.335937-9.371094-5.746094-14.410156-2.789062-9.945313 4.722657-19.808594 15.054688-19.808594h.105469c2.132812 0 4.167968.4375 6.039062 1.230468-6.9375 2.949219-11.148438 10.742188-8.945312 18.578126 2.375 8.484374 6.238281 16.355468 11.296874 23.304687zm0 0" fill="#2c363b"/><path d="m271.671875 399.601562h-31.34375c-2.886719 0-5.226563-2.339843-5.226563-5.226562 0-2.882812 2.339844-5.222656 5.226563-5.222656h31.34375c2.886719 0 5.226563 2.339844 5.226563 5.222656 0 2.886719-2.339844 5.226562-5.226563 5.226562zm0 0" fill="#2c363b"/><path d="m252.582031 394.375v51.199219c0 23.042969-18.148437 42.425781-41.179687 42.96875-2.453125.0625-4.855469-.09375-7.199219-.441407 20.574219-3.007812 36.125-21.199218 36.125-42.527343v-51.199219zm0 0" fill="#2c363b"/><path d="m465.394531 321.265625 23.375-5.914063c9.457031-2.394531 9.457031-15.828124 0-18.222656l-23.375-5.914062c-3.347656-.847656-5.960937-3.460938-6.804687-6.804688l-5.917969-23.375c-2.394531-9.457031-15.828125-9.457031-18.222656 0l-5.914063 23.375c-.847656 3.34375-3.460937 5.957032-6.804687 6.804688l-23.375 5.914062c-9.457031 2.394532-9.457031 15.828125 0 18.222656l23.375 5.914063c3.34375.847656 5.957031 3.460937 6.804687 6.804687l5.914063 23.375c2.394531 9.457032 15.828125 9.457032 18.222656 0l5.917969-23.375c.84375-3.34375 3.457031-5.957031 6.804687-6.804687zm0 0" fill="#f1f4fe"/></svg>