<svg height="512pt" viewBox="0 -9 512 512" width="512pt" xmlns="http://www.w3.org/2000/svg"><path d="m17.066406 8.535156h307.199219c4.714844 0 8.535156 3.820313 8.535156 8.53125v290.132813c0 4.714843-3.820312 8.535156-8.535156 8.535156h-307.199219c-4.710937 0-8.53125-3.820313-8.53125-8.535156v-290.132813c0-4.710937 3.820313-8.53125 8.53125-8.53125zm0 0" fill="#c52828"/><path d="m17.066406 8.535156h281.601563c4.710937 0 8.53125 3.820313 8.53125 8.53125v290.132813c0 4.714843-3.820313 8.535156-8.53125 8.535156h-281.601563c-4.710937 0-8.53125-3.820313-8.53125-8.535156v-290.132813c0-4.710937 3.820313-8.53125 8.53125-8.53125zm0 0" fill="#f44335"/><path d="m187.734375 162.132812h307.199219c4.710937 0 8.53125 3.820313 8.53125 8.535157v307.199219c0 4.710937-3.820313 8.53125-8.53125 8.53125h-307.199219c-4.714844 0-8.535156-3.820313-8.535156-8.53125v-307.199219c0-4.714844 3.820312-8.535157 8.535156-8.535157zm0 0" fill="#ff9801"/><path d="m187.734375 162.132812h281.597656c4.714844 0 8.535157 3.820313 8.535157 8.535157v307.199219c0 4.710937-3.820313 8.53125-8.535157 8.53125h-281.597656c-4.714844 0-8.535156-3.820313-8.535156-8.53125v-307.199219c0-4.714844 3.820312-8.535157 8.535156-8.535157zm0 0" fill="#fec108"/><path d="m332.800781 153.601562v154.023438c-.277343 4.730469-4.316406 8.351562-9.046875 8.109375h-153.085937v-154.027344c.273437-4.730469 4.3125-8.347656 9.042969-8.105469zm0 0" fill="#d84315"/><path d="m307.199219 153.601562v154.023438c-.273438 4.730469-4.3125 8.351562-9.042969 8.109375h-127.488281v-154.027344c.273437-4.730469 4.3125-8.347656 9.042969-8.105469zm0 0" fill="#ff5722"/><path d="m256 236.628906v215.636719c0 3.574219-2.226562 6.769531-5.578125 8.007813-3.351563 1.238281-7.117187.253906-9.441406-2.460938l-10.582031-12.371094-45.054688-52.90625c-1.773438-2.039062-4.386719-3.140625-7.082031-2.988281l-7.59375.597656-12.546875.9375-66.300782 4.949219c-1.976562.175781-3.945312-.367188-5.546874-1.535156h-.085938c-2.054688-1.492188-3.347656-3.816406-3.527344-6.351563-.183594-2.535156.765625-5.019531 2.585938-6.789062l68.011718-65.621094 17.410157-16.8125 1.195312-1.195313 58.535157-56.488281 11.179687-10.753906c2.46875-2.351563 6.097656-3.007813 9.234375-1.671875 3.132812 1.335938 5.175781 4.410156 5.1875 7.816406zm0 0" fill="#00838f"/><path d="m230.398438 241.238281v204.203125l-45.054688-52.90625c-1.773438-2.039062-4.386719-3.140625-7.082031-2.988281l-7.59375.597656-12.546875.9375c-1.601563-1.09375-3.519532-1.636719-5.460938-1.535156l-7.59375.597656-58.792968 4.351563h-.085938c-2.054688-1.492188-3.347656-3.816406-3.527344-6.351563-.183594-2.535156.765625-5.019531 2.585938-6.789062l68.011718-65.621094 17.410157-16.8125 1.195312-1.195313zm0 0" fill="#00bcd4"/><path d="m21.332031 324.265625h110.78125l-52.804687 50.960937c-5.1875 4.996094-6.683594 12.707032-3.738282 19.277344 2.949219 6.570313 9.699219 10.585938 16.878907 10.035156l69.683593-5.179687v74.242187c0 11.78125 9.550782 21.332032 21.332032 21.332032h307.203125c11.78125 0 21.332031-9.550782 21.332031-21.332032v-307.203124c0-11.78125-9.550781-21.332032-21.332031-21.332032h-149.335938v-123.734375c0-11.78125-9.550781-21.332031-21.332031-21.332031h-298.667969c-11.78125 0-21.332031 9.550781-21.332031 21.332031v281.601563c0 11.78125 9.550781 21.332031 21.332031 21.332031zm69.847657 63.234375 67.925781-65.605469.296875-.28125 88.0625-85.050781v215.703125l-55.703125-65.355469c-3.304688-3.757812-8.0625-5.914062-13.066407-5.914062-.375 0-.742187 0-1.109374 0zm162.933593-166.570312c-6.277343-2.675782-13.546875-1.328126-18.457031 3.410156l-56.457031 54.488281v-112.429687c0-2.355469 1.910156-4.265626 4.265625-4.265626h136.535156c2.355469 0 4.265625 1.910157 4.265625 4.265626v136.535156c0 2.355468-1.910156 4.265625-4.265625 4.265625h-55.464844v-70.570313c-.007812-6.851562-4.113281-13.03125-10.421875-15.699218zm240.820313-54.53125v307.203124c-.03125 2.339844-1.925782 4.234376-4.265625 4.265626h-307.203125c-2.339844-.03125-4.234375-1.925782-4.265625-4.265626v-75.09375l55.296875 64.851563c3.210937 3.785156 7.921875 5.96875 12.886718 5.972656 2.039063-.003906 4.0625-.371093 5.972657-1.082031 6.734375-2.421875 11.214843-8.824219 11.179687-15.984375v-128h55.464844c11.78125 0 21.332031-9.550781 21.332031-21.332031v-136.535156c0-1.433594-.144531-2.859376-.433593-4.265626h149.769531c2.339843.03125 4.234375 1.925782 4.265625 4.265626zm-477.867188-145.066407c.03125-2.339843 1.925782-4.234375 4.265625-4.265625h298.667969c2.34375.03125 4.234375 1.925782 4.265625 4.265625v124.167969c-1.402344-.285156-2.832031-.433594-4.265625-.433594h-136.535156c-11.78125 0-21.332032 9.550782-21.332032 21.332032v123.734374c.011719 1.609376.136719 3.214844.375 4.804688l-12.707031 12.261719h-128.46875c-2.339843-.03125-4.234375-1.921875-4.265625-4.265625zm0 0"/><path d="m51.199219 145.066406c4.714843 0 8.535156-3.820312 8.535156-8.53125v-51.203125c0-4.710937-3.820313-8.53125-8.535156-8.53125-4.710938 0-8.53125 3.820313-8.53125 8.53125v51.203125c0 4.710938 3.820312 8.53125 8.53125 8.53125zm0 0"/><path d="m51.199219 59.734375c4.714843 0 8.535156-3.820313 8.535156-8.535156v-8.53125c0-4.714844-3.820313-8.535157-8.535156-8.535157-4.710938 0-8.53125 3.820313-8.53125 8.535157v8.53125c0 4.714843 3.820312 8.535156 8.53125 8.535156zm0 0"/></svg>