<svg height="512pt" viewBox="0 -80 512 512" width="512pt" xmlns="http://www.w3.org/2000/svg"><path d="m129.492188 304.980469c-4.832032-2.0625-4.832032-8.914063 0-10.976563 19.800781-8.453125 35.574218-24.226562 44.027343-44.03125 2.066407-4.832031 8.914063-4.832031 10.976563 0 8.457031 19.800782 24.230468 35.574219 44.03125 44.03125 4.832031 2.0625 4.832031 8.914063 0 10.976563-19.800782 8.453125-35.574219 24.226562-44.03125 44.03125-2.0625 4.832031-8.910156 4.832031-10.976563 0-8.453125-19.804688-24.226562-35.578125-44.027343-44.03125zm0 0" fill="#a3defe"/><path d="m344.34375 64.734375c-5.335938-2.277344-5.335938-9.84375 0-12.121094 21.859375-9.335937 39.277344-26.75 48.609375-48.613281 2.28125-5.332031 9.84375-5.332031 12.121094 0 9.335937 21.863281 26.75 39.277344 48.613281 48.613281 5.335938 2.277344 5.335938 9.84375 0 12.121094-21.863281 9.332031-39.277344 26.75-48.613281 48.613281-2.277344 5.332032-9.839844 5.332032-12.121094 0-9.332031-21.863281-26.75-39.28125-48.609375-48.613281zm0 0" fill="#eea849"/><path d="m318.082031 225.171875v73.707031c0 5.421875 4.398438 9.820313 9.824219 9.820313h21.886719c5.425781 0 9.824219-4.398438 9.824219-9.820313v-11.4375c0-15.847656 12.96875-29.199218 28.8125-28.898437 15.359374.292969 27.722656 12.835937 27.722656 28.261719v12.074218c0 5.421875 4.398437 9.820313 9.824218 9.820313h21.886719c5.425781 0 9.824219-4.398438 9.824219-9.820313v-73.707031zm0 0" fill="#89d47f"/><path d="m318.082031 225.171875h139.605469v23.890625h-139.605469zm0 0" fill="#5ec783"/><path d="m481.074219 141.09375h-302.15625v84.078125h302.15625c17.078125 0 30.925781-13.847656 30.925781-30.925781v-22.222656c0-17.082032-13.847656-30.929688-30.925781-30.929688zm0 0" fill="#a3defe"/><path d="m363.109375 141.09375h-184.191406v84.078125h199.578125c-15.15625-17.03125-23.949219-53.902344-15.386719-84.078125zm0 0" fill="#7acefa"/><path d="m252.765625 242.859375h-89.007813c-.472656 0-.851562-.382813-.851562-.855469v-117.742187c0-.46875.378906-.851563.851562-.851563h89.007813c9.15625 0 16.582031 7.425782 16.582031 16.582032v86.285156c0 9.15625-7.425781 16.582031-16.582031 16.582031zm0 0" fill="#6e7ca8"/><path d="m222.324219 183.132812c0 61.394532-49.769531 111.164063-111.160157 111.164063-61.394531 0-111.164062-49.769531-111.164062-111.164063 0-61.390624 49.769531-111.160156 111.164062-111.160156 61.390626 0 111.160157 49.769532 111.160157 111.160156zm0 0" fill="#eea849"/><path d="m166.96875 279.289062c-94.265625-19.179687-138.613281-109.511718-122.605469-185.011718-26.941406 20.285156-44.363281 52.535156-44.363281 88.855468 0 61.394532 49.769531 111.164063 111.164062 111.164063 20.339844 0 39.402344-5.46875 55.804688-15.007813zm0 0" fill="#e9901b"/><g fill="#f7ef87"><path d="m129.550781 190.632812h-62.28125c-4.144531 0-7.5-3.355468-7.5-7.5 0-4.140624 3.355469-7.5 7.5-7.5h62.28125c11.554688 0 20.953125-9.398437 20.953125-20.953124 0-11.554688-9.398437-20.957032-20.953125-20.957032h-62.28125c-4.144531 0-7.5-3.355468-7.5-7.5 0-4.140625 3.355469-7.5 7.5-7.5h62.28125c19.824219 0 35.953125 16.128906 35.953125 35.957032 0 19.824218-16.128906 35.953124-35.953125 35.953124zm0 0"/><path d="m129.550781 247.546875h-62.28125c-4.144531 0-7.5-3.359375-7.5-7.5 0-4.144531 3.355469-7.5 7.5-7.5h62.28125c11.554688 0 20.953125-9.402344 20.953125-20.957031 0-11.554688-9.398437-20.957032-20.953125-20.957032-4.144531 0-7.5-3.355468-7.5-7.5 0-4.140624 3.355469-7.5 7.5-7.5 19.824219 0 35.953125 16.128907 35.953125 35.957032 0 19.824218-16.128906 35.957031-35.953125 35.957031zm0 0"/><path d="m89.003906 266.058594c-4.144531 0-7.5-3.355469-7.5-7.5v-150.847656c0-4.144532 3.355469-7.5 7.5-7.5 4.140625 0 7.5 3.355468 7.5 7.5v150.847656c0 4.144531-3.359375 7.5-7.5 7.5zm0 0"/><path d="m122.351562 133.722656c-4.144531 0-7.5-3.355468-7.5-7.5v-17.75c0-4.144531 3.355469-7.5 7.5-7.5 4.140626 0 7.5 3.355469 7.5 7.5v17.75c0 4.144532-3.359374 7.5-7.5 7.5zm0 0"/><path d="m122.351562 265.296875c-4.144531 0-7.5-3.359375-7.5-7.5v-17.753906c0-4.140625 3.355469-7.5 7.5-7.5 4.140626 0 7.5 3.359375 7.5 7.5v17.753906c0 4.144531-3.359374 7.5-7.5 7.5zm0 0"/></g><path d="m409.90625 204.652344c-1.921875 0-3.839844-.734375-5.304688-2.199219-2.929687-2.929687-2.929687-7.675781 0-10.605469l20.183594-20.183594c2.929688-2.929687 7.679688-2.929687 10.609375 0 2.925781 2.929688 2.925781 7.675782 0 10.605469l-20.1875 20.183594c-1.464843 1.464844-3.382812 2.199219-5.300781 2.199219zm0 0" fill="#7acefa"/><path d="m455.941406 190.632812c-1.921875 0-3.839844-.730468-5.304687-2.195312-2.929688-2.929688-2.929688-7.679688 0-10.605469l14.09375-14.09375c2.929687-2.929687 7.679687-2.929687 10.605469 0 2.929687 2.929688 2.929687 7.675781 0 10.605469l-14.09375 14.09375c-1.464844 1.464844-3.382813 2.195312-5.300782 2.195312zm0 0" fill="#7acefa"/></svg>