<svg height="512pt" viewBox="0 0 512 512" width="512pt" xmlns="http://www.w3.org/2000/svg"><path d="m447 154.160156h-60c-8.285156 0-15 6.71875-15 15v267.839844c0 8.285156 6.714844 15 15 15h60c8.285156 0 15-6.714844 15-15v-267.839844c0-8.28125-6.714844-15-15-15zm0 0" fill="#55506e"/><path d="m447 154.160156h-30v297.839844h30c8.285156 0 15-6.714844 15-15v-267.839844c0-8.28125-6.714844-15-15-15zm0 0" fill="#47435c"/><path d="m417 190c-52.382812 0-95-42.617188-95-95s42.617188-95 95-95 95 42.617188 95 95-42.617188 95-95 95zm0 0" fill="#ff5b33"/><path d="m417 0v190c52.382812 0 95-42.617188 95-95s-42.617188-95-95-95zm0 0" fill="#e34100"/><path d="m417 30c-35.839844 0-65 29.160156-65 65s29.160156 65 65 65 65-29.160156 65-65-29.160156-65-65-65zm0 0" fill="#d7f0f5"/><path d="m417 30v130c35.839844 0 65-29.160156 65-65s-29.160156-65-65-65zm0 0" fill="#c3e1eb"/><path d="m497 512h-482c-8.285156 0-15-6.714844-15-15v-60c0-8.285156 6.714844-15 15-15h482c8.285156 0 15 6.714844 15 15v60c0 8.285156-6.714844 15-15 15zm0 0" fill="#ff5b33"/><path d="m497 422h-241v90h241c8.285156 0 15-6.714844 15-15v-60c0-8.285156-6.714844-15-15-15zm0 0" fill="#e34100"/><path d="m417 120c-8.285156 0-15-6.714844-15-15v-30c0-8.285156 6.714844-15 15-15s15 6.714844 15 15v30c0 8.285156-6.714844 15-15 15zm0 0" fill="#55506e"/><path d="m432 105v-30c0-8.285156-6.714844-15-15-15v60c8.285156 0 15-6.714844 15-15zm0 0" fill="#47435c"/><path d="m205 102h-80c-19.300781 0-35 15.699219-35 35v40c0 8.285156 6.714844 15 15 15h15v-55c0-2.757812 2.242188-5 5-5h80c2.757812 0 5 2.242188 5 5v55h15c8.285156 0 15-6.714844 15-15v-40c0-19.300781-15.699219-35-35-35zm0 0" fill="#55506e"/><path d="m205 102h-40v30h40c2.757812 0 5 2.242188 5 5v55h15c8.285156 0 15-6.714844 15-15v-40c0-19.300781-15.699219-35-35-35zm0 0" fill="#47435c"/><path d="m285 392h-240c-24.851562 0-45-20.148438-45-45v-90h330v90c0 24.851562-20.148438 45-45 45zm0 0" fill="#f5c80e"/><path d="m330 257h-165v135h120c24.851562 0 45-20.148438 45-45zm0 0" fill="#eaac00"/><path d="m165 312c-1.300781 0-2.597656-.167969-3.863281-.507812l-150-40c-6.566407-1.75-11.136719-7.695313-11.136719-14.492188v-50c0-24.8125 20.1875-45 45-45h240c24.8125 0 45 20.1875 45 45v50c0 6.796875-4.570312 12.742188-11.136719 14.492188l-150 40c-1.265625.339843-2.5625.507812-3.863281.507812zm0 0" fill="#ffde2b"/><path d="m285 162h-120v150c1.300781 0 2.597656-.167969 3.863281-.507812l150-40c6.566407-1.75 11.136719-7.695313 11.136719-14.492188v-50c0-24.8125-20.1875-45-45-45zm0 0" fill="#f5c80e"/></svg>