<svg height="452pt" viewBox="0 0 452 452.18129" width="452pt" xmlns="http://www.w3.org/2000/svg"><path d="m66.171875 22.351562s6.816406 25.316407 26.445313 26.492188c0 0-26.199219 9.050781-26.640626 28.402344 0 0-5.15625-27.144532-25.851562-28.117188 0 0 24.101562-3.648437 26.046875-26.777344zm0 0" fill="#d6df58"/><path d="m65.972656 80.246094c-1.425781 0-2.671875-1.011719-2.945312-2.433594-.046875-.25-4.988282-24.835938-23.042969-25.6875-1.542969-.070312-2.777344-1.300781-2.855469-2.839844-.082031-1.542968 1.023438-2.890625 2.546875-3.125.882813-.136718 21.785157-3.632812 23.507813-24.0625.121094-1.453125 1.265625-2.601562 2.71875-2.734375 1.433594-.128906 2.785156.796875 3.164062 2.203125.0625.234375 6.519532 23.253906 23.726563 24.28125 1.425781.085938 2.59375 1.167969 2.792969 2.585938.195312 1.414062-.640626 2.777344-1.988282 3.242187-.242187.085938-24.238281 8.625-24.628906 25.640625-.035156 1.535156-1.21875 2.792969-2.75 2.921875-.078125.003907-.164062.007813-.246094.007813zm-15.480468-31.457032c7.753906 3.9375 12.457031 11.488282 15.171874 17.753907 4.050782-8.042969 11.878907-13.574219 17.898438-16.855469-8.273438-3.6875-13.566406-11.300781-16.667969-17.445312-3.585937 8.71875-10.542969 13.734374-16.402343 16.546874zm0 0" fill="#3a312a"/><path d="m22.777344 56.3125s4.820312 17.90625 18.703125 18.738281c0 0-18.53125 6.402344-18.84375 20.089844 0 0-3.648438-19.203125-18.285157-19.890625 0 .003906 17.046876-2.578125 18.425782-18.9375zm0 0" fill="#d6df58"/><path d="m22.632812 98.140625c-1.429687 0-2.675781-1.011719-2.945312-2.4375-.03125-.164063-3.410156-16.886719-15.480469-17.453125-1.539062-.074219-2.773437-1.300781-2.851562-2.84375-.082031-1.539062 1.019531-2.886719 2.546875-3.121094.589844-.09375 14.726562-2.484375 15.882812-16.226562.125-1.453125 1.273438-2.605469 2.722656-2.734375 1.449219-.144531 2.78125.796875 3.164063 2.203125.042969.15625 4.453125 15.839844 15.988281 16.53125 1.429688.082031 2.597656 1.167968 2.792969 2.585937s-.636719 2.773438-1.992187 3.242188c-.164063.054687-16.5625 5.90625-16.828126 17.324219-.035156 1.535156-1.21875 2.792968-2.75 2.921874-.085937.003907-.167968.007813-.25.007813zm-9.039062-23.054687c4.214844 2.664062 7.046875 6.792968 8.894531 10.558593 2.753907-4.464843 7.03125-7.742187 10.730469-9.945312-4.574219-2.539063-7.769531-6.699219-9.882812-10.449219-2.34375 4.578125-6.027344 7.753906-9.742188 9.835938zm0 0" fill="#3a312a"/><path d="m22.777344 2.996094s4.820312 17.910156 18.703125 18.742187c0 0-18.53125 6.402344-18.84375 20.089844 0 0-3.648438-19.199219-18.285157-19.890625 0 0 17.046876-2.582031 18.425782-18.941406zm0 0" fill="#d6df58"/><path d="m22.632812 44.828125c-1.425781 0-2.675781-1.015625-2.945312-2.441406-.03125-.164063-3.40625-16.882813-15.476562-17.453125-1.542969-.070313-2.777344-1.296875-2.855469-2.839844-.082031-1.539062 1.019531-2.886719 2.546875-3.121094.589844-.09375 14.726562-2.488281 15.882812-16.226562.125-1.453125 1.273438-2.605469 2.722656-2.7382815 1.449219-.1093745 2.78125.8007815 3.164063 2.2070315.042969.15625 4.453125 15.839844 15.988281 16.527344 1.429688.085937 2.597656 1.167968 2.792969 2.585937s-.636719 2.777344-1.992187 3.246094c-.164063.054687-16.5625 5.90625-16.828126 17.324219-.035156 1.535156-1.21875 2.792968-2.75 2.921874-.085937.003907-.167968.007813-.25.007813zm-9.039062-23.058594c4.21875 2.667969 7.046875 6.792969 8.894531 10.5625 2.753907-4.464843 7.03125-7.746093 10.730469-9.945312-4.574219-2.539063-7.769531-6.703125-9.882812-10.449219-2.34375 4.574219-6.027344 7.75-9.742188 9.832031zm0 0" fill="#3a312a"/><path d="m3.089844 265.171875v153.246094c0 16.988281 13.773437 30.761719 30.765625 30.761719h384.472656c16.988281 0 30.761719-13.773438 30.761719-30.761719v-251.335938h-446zm0 0" fill="#fce8cb"/><path d="m418.328125 452.179688h-384.472656c-18.617188 0-33.7656252-15.144532-33.7656252-33.761719v-153.246094c0-1.65625 1.3437502-3 3.0000002-3 1.660156 0 3 1.34375 3 3v153.246094c0 15.308593 12.453125 27.761719 27.765625 27.761719h384.472656c15.304687 0 27.761719-12.453126 27.761719-27.761719v-248.335938h-440v68.566407c0 1.65625-1.339844 3-3 3-1.65625 0-3.0000002-1.34375-3.0000002-3v-71.566407c0-1.65625 1.3437502-3 3.0000002-3h446c1.65625 0 3 1.34375 3 3v251.335938c0 18.617187-15.144532 33.761719-33.761719 33.761719zm0 0" fill="#3a312a"/><path d="m330.210938 107.75h-296.355469c-16.992188 0-30.765625 13.773438-30.765625 30.761719v28.570312h446v-28.570312c0-16.988281-13.773438-30.761719-30.761719-30.761719zm0 0" fill="#87796f"/><path d="m449.089844 170.082031h-446c-1.65625 0-3.0000002-1.34375-3.0000002-3v-28.570312c0-18.617188 15.1484372-33.761719 33.7656252-33.761719h296.355469c1.65625 0 3 1.34375 3 3s-1.34375 3-3 3h-296.355469c-15.3125 0-27.765625 12.457031-27.765625 27.761719v25.570312h440v-25.570312c0-15.304688-12.457032-27.761719-27.761719-27.761719h-62.503906c-1.65625 0-3-1.34375-3-3s1.34375-3 3-3h62.503906c18.617187 0 33.761719 15.144531 33.761719 33.761719v28.570312c0 1.65625-1.34375 3-3 3zm0 0" fill="#3a312a"/><path d="m57.589844 137.75c0 7.457031-6.042969 13.5-13.5 13.5-7.453125 0-13.5-6.042969-13.5-13.5s6.046875-13.5 13.5-13.5c7.457031 0 13.5 6.042969 13.5 13.5zm0 0" fill="#f16c7a"/><path d="m44.089844 154.25c-9.097656 0-16.5-7.402344-16.5-16.5s7.402344-16.5 16.5-16.5 16.5 7.402344 16.5 16.5-7.402344 16.5-16.5 16.5zm0-27c-5.789063 0-10.5 4.710938-10.5 10.5s4.710937 10.5 10.5 10.5c5.789062 0 10.5-4.710938 10.5-10.5s-4.710938-10.5-10.5-10.5zm0 0" fill="#3a312a"/><path d="m114.089844 137.75c0 7.457031-6.042969 13.5-13.5 13.5-7.453125 0-13.5-6.042969-13.5-13.5s6.046875-13.5 13.5-13.5c7.457031 0 13.5 6.042969 13.5 13.5zm0 0" fill="#d7e057"/><path d="m100.589844 154.25c-9.097656 0-16.5-7.402344-16.5-16.5s7.402344-16.5 16.5-16.5 16.5 7.402344 16.5 16.5-7.402344 16.5-16.5 16.5zm0-27c-5.789063 0-10.5 4.710938-10.5 10.5s4.710937 10.5 10.5 10.5c5.789062 0 10.5-4.710938 10.5-10.5s-4.710938-10.5-10.5-10.5zm0 0" fill="#3a312a"/><path d="m170.589844 137.75c0 7.457031-6.042969 13.5-13.5 13.5-7.453125 0-13.5-6.042969-13.5-13.5s6.046875-13.5 13.5-13.5c7.457031 0 13.5 6.042969 13.5 13.5zm0 0" fill="#8ac6dd"/><path d="m157.089844 154.25c-9.097656 0-16.5-7.402344-16.5-16.5s7.402344-16.5 16.5-16.5 16.5 7.402344 16.5 16.5-7.402344 16.5-16.5 16.5zm0-27c-5.789063 0-10.5 4.710938-10.5 10.5s4.710937 10.5 10.5 10.5c5.789062 0 10.5-4.710938 10.5-10.5s-4.710938-10.5-10.5-10.5zm0 0" fill="#3a312a"/><path d="m369.300781 343.535156c5.59375 0 10.125-4.535156 10.125-10.125v-40.753906c0-5.589844-4.53125-10.121094-10.125-10.121094h-285.898437c-5.589844 0-10.125 4.53125-10.125 10.121094v40.753906c0 5.589844 4.535156 10.125 10.125 10.125zm0 0" fill="#d7e057"/><path d="m369.300781 346.535156h-285.898437c-7.238282 0-13.125-5.886718-13.125-13.125v-40.753906c0-7.234375 5.886718-13.121094 13.125-13.121094h285.898437c7.238281 0 13.125 5.882813 13.125 13.121094v40.753906c0 7.238282-5.886719 13.125-13.125 13.125zm-285.898437-61c-3.929688 0-7.125 3.195313-7.125 7.121094v40.757812c0 3.925782 3.195312 7.125 7.125 7.125h285.898437c3.929688 0 7.125-3.199218 7.125-7.125v-40.757812c0-3.925781-3.195312-7.121094-7.125-7.121094zm0 0" fill="#3a312a"/><path d="m134.351562 282.535156h-50.949218c-5.589844 0-10.125 4.53125-10.125 10.121094v40.753906c0 5.589844 4.535156 10.125 10.125 10.125h50.949218zm0 0" fill="#8ac5dc"/><path d="m134.351562 346.535156h-50.949218c-7.238282 0-13.125-5.886718-13.125-13.125v-40.753906c0-7.234375 5.886718-13.121094 13.125-13.121094h50.949218c1.65625 0 3 1.34375 3 3v61c0 1.652344-1.34375 3-3 3zm-50.949218-61c-3.929688 0-7.125 3.195313-7.125 7.121094v40.753906c0 3.925782 3.195312 7.125 7.125 7.125h47.949218v-55zm0 0" fill="#3a312a"/><path d="m288.460938 304.160156-12.507813 59.449219 20.640625-10.441406 22.375 44.226562 26.539062-13.425781-22.378906-44.230469 20.640625-10.441406zm0 0" fill="#f16c7a"/><path d="m318.972656 400.390625c-1.097656 0-2.148437-.601563-2.679687-1.644531l-21.023438-41.546875-17.960937 9.089843c-1.027344.515626-2.265625.398438-3.183594-.300781-.914062-.703125-1.34375-1.867187-1.105469-2.996093l12.507813-59.445313c.1875-.890625.769531-1.648437 1.582031-2.0625.808594-.410156 1.765625-.425781 2.59375-.050781l55.304687 25.132812c1.050782.476563 1.734376 1.515625 1.757813 2.667969s-.613281 2.21875-1.644531 2.742187l-17.960938 9.085938 21.023438 41.550781c.75 1.476563.15625 3.285157-1.324219 4.03125l-26.535156 13.425781c-.433594.21875-.894531.320313-1.351563.320313zm-22.378906-50.222656c1.09375 0 2.148438.601562 2.679688 1.644531l21.019531 41.546875 21.183593-10.714844-21.023437-41.550781c-.75-1.476562-.15625-3.285156 1.320313-4.03125l15.0625-7.625-46.207032-21-10.453125 49.671875 15.0625-7.621094c.4375-.21875.898438-.320312 1.355469-.320312zm0 0" fill="#3a312a"/><path d="m416.089844 170.089844v248.320312c0 15.320313-12.460938 27.761719-27.757813 27.761719h30c15.296875 0 27.757813-12.441406 27.757813-27.761719v-248.320312zm0 0" fill="#decaad"/><path d="m418.332031 110.75h-30c15.296875 0 27.757813 12.460938 27.757813 27.761719v25.578125h30v-25.578125c0-15.300781-12.460938-27.761719-27.757813-27.761719zm0 0" fill="#695b51"/></svg>