<svg height="464pt" viewBox="-16 0 464 464" width="464pt" xmlns="http://www.w3.org/2000/svg"><path d="m136 464h96c120 0 136-74.585938 136-112 0-152-67.199219-252.9375-160-264l48-72-10.34375-10.34375c-3.621094-3.621094-8.535156-5.65625-13.65625-5.65625s-10.035156 2.035156-13.65625 5.65625l-10.34375 10.34375-10.34375-10.34375c-3.621094-3.621094-8.535156-5.65625-13.65625-5.65625s-10.035156 2.035156-13.65625 5.65625l-10.34375 10.34375-10.34375-10.34375c-3.621094-3.621094-8.535156-5.65625-13.65625-5.65625s-10.035156 2.035156-13.65625 5.65625l-10.34375 10.34375 48 72c-92.886719 10.945312-160 112-160 264 0 37.425781 16 112 136 112zm0 0" fill="#f6e8c7"/><path d="m168 88c0 17.671875-14.328125 32-32 32s-32-14.328125-32-32 14.328125-32 32-32 32 14.328125 32 32zm0 0" fill="#4db5ff"/><path d="m264 88c0 17.671875-14.328125 32-32 32s-32-14.328125-32-32 14.328125-32 32-32 32 14.328125 32 32zm0 0" fill="#4db5ff"/><g fill="#354468"><path d="m216 88h-16c0-8.835938-7.164062-16-16-16s-16 7.164062-16 16h-16c0-17.671875 14.328125-32 32-32s32 14.328125 32 32zm0 0"/><path d="m264 88h-16c.035156-30.914062 25.085938-55.964844 56-56h16v16h-16c-22.082031.027344-39.972656 17.917969-40 40zm0 0"/><path d="m120 88h-16c-.027344-22.082031-17.917969-39.972656-40-40h-16v-16h16c30.914062.035156 55.964844 25.085938 56 56zm0 0"/></g><path d="m248 336c-.035156-35.332031-28.667969-63.964844-64-64-17.671875 0-32-14.328125-32-32s14.328125-32 32-32 32 14.328125 32 32h32c.027344-29.183594-19.730469-54.671875-48-61.921875v-34.078125h-32v34.105469c-31.199219 8.039062-51.550781 38.035156-47.488281 70 4.0625 31.960937 31.269531 55.914062 63.488281 55.894531 17.671875 0 32 14.328125 32 32s-14.328125 32-32 32-32-14.328125-32-32h-32c.054688 29.148438 19.78125 54.582031 48 61.886719v34.113281h32v-34.105469c28.21875-7.308593 47.945312-32.746093 48-61.894531zm0 0" fill="#ffbc05"/><path d="m432 464v-248c0-30.929688-25.070312-56-56-56s-56 25.070312-56 56v8h32v-8c0-13.253906 10.746094-24 24-24s24 10.746094 24 24v248zm0 0" fill="#415887"/></svg>