<svg height="511pt" viewBox="0 -9 511.99962 511" width="511pt" xmlns="http://www.w3.org/2000/svg"><path d="m395.972656 287.121094c-.339844-14.242188-9.152344-27.800782-26.785156-37.980469-39.699219-22.921875-109.050781-20.046875-154.894531 6.421875-25.261719 14.582031-38.105469 33.289062-37.914063 50.980469h-.007812v42.066406c.054687 12.21875 6.34375 23.957031 19.03125 33.539063l11.378906 73.054687c.089844 10.445313 6.464844 20.40625 19.378906 27.863281 28.707032 16.574219 78.851563 14.496094 112-4.644531 17.570313-10.140625 26.835938-23.039063 27.394532-35.390625l.03125-.003906 11.316406-75.761719c12.9375-11.886719 19.375-25.128906 19.074218-37.828125h.003907v-40.808594c.007812-.429687.007812-.859375 0-1.289062v-.21875zm0 0" fill="#ef5f26"/><path d="m395.976562 288.628906c.007813-.433594.007813-.863281 0-1.292968v-.214844h-.003906c-.339844-14.246094-9.152344-27.800782-26.785156-37.980469-39.703125-22.921875-109.050781-20.046875-154.894531 6.417969-25.261719 14.585937-38.109375 33.289062-37.914063 50.980468l-.011718.003907v42.066406h.003906c.0625 14.503906 8.875 28.339844 26.800781 38.6875 39.703125 22.921875 109.050781 20.046875 154.894531-6.417969 25.480469-14.714844 38.332032-33.617187 37.90625-51.445312h.003906zm0 0" fill="#d34e13"/><path d="m358.066406 338.570312c-45.84375 26.46875-115.191406 29.34375-154.894531 6.421876-39.699219-22.925782-34.722656-62.960938 11.121094-89.429688s115.195312-29.34375 154.894531-6.421875c39.703125 22.921875 34.722656 62.960937-11.121094 89.429687zm0 0" fill="#ff7e27"/><path d="m344.625 330.808594c-37.273438 21.519531-93.652344 23.855468-125.933594 5.21875-32.277344-18.636719-28.226562-51.1875 9.042969-72.707032 37.273437-21.519531 93.652344-23.855468 125.933594-5.21875 32.277343 18.636719 28.230469 51.1875-9.042969 72.707032zm0 0" fill="#ef5f26"/><path d="m353.667969 294.226562c-32.277344-18.636718-88.660157-16.300781-125.933594 5.21875-11.613281 6.707032-20 14.484376-25.066406 22.574219 3.617187 5.164063 8.945312 9.921875 16.027343 14.007813 32.277344 18.636718 88.660157 16.300781 125.929688-5.21875 11.613281-6.707032 20-14.484375 25.070312-22.578125-3.621093-5.160157-8.949218-9.917969-16.027343-14.003907zm0 0" fill="#b2260b"/><path d="m222.847656 166.097656c21.148438 75.464844 15.808594 167.597656 22.113282 170.132813 7.175781 2.882812 30.152343 1.503906 34.894531-15.511719 0 0-12.914063-95.390625-33.558594-166.839844zm0 0" fill="#017761"/><path d="m344.914062 93.300781c-21.148437 75.460938-27.53125 222.921875-33.839843 225.453125-7.171875 2.882813-30.152344 1.503906-34.890625-15.507812 0 0 26.261718-140.703125 41.277344-222.164063zm0 0" fill="#005444"/><path d="m461.691406 189.691406c-22.429687-2.472656-40.417968-1.296875-34.949218-17.011718 5.46875-15.71875 43.230468-17.664063 67.667968-6.628907 2.78125 1.257813 5.527344 2.695313 8.222656 4.246094 8.253907-24.238281 12.046876-52.101563 7.273438-83.21875-8.164062-53.199219-54.109375-97.851563-96.9375-84.042969-42.832031 13.804688-51.042969 67.304688-51.042969 67.304688s-33.71875-42.339844-77.746093-33.027344c-43.253907 9.148438-61.039063 68.746094-43.289063 118.453125 5.449219-10.476563 13.773437-24.296875 24.121094-34.574219 19.027343-18.894531 55.082031-30.296875 65.707031-17.488281s-6.636719 18.003906-26.78125 28.175781c-17.15625 8.664063-41.671875 24.535156-49.105469 53.347656 6.421875 10.835938 13.703125 20.441407 21.554688 28.949219 2.820312-5.941406 6.128906-11.867187 9.957031-17.15625 15.71875-21.722656 49.453125-38.808593 62.007812-27.886719 12.558594 10.917969-3.632812 18.835938-21.867187 32.132813-9.71875 7.089844-21.828125 17.429687-30.1875 31.4375 54.429687 43.515625 121.433594 47.289063 121.433594 47.289063s46.015625-29.917969 73.746093-83.578126c-10.566406-3.953124-21.140624-5.765624-29.785156-6.722656zm-103.179687 53.089844c-13.21875 7.230469-18.757813 2.234375-15.574219-7.304688 2.550781-7.648437 9.453125-15.886718 14.585938-21.277343 4.628906-4.855469 10.453124-8.480469 16.953124-10.140625 4.558594-1.167969 9.3125-1.4375 11.515626 1.441406 4.898437 6.402344-14.257813 30.046875-27.480469 37.28125zm0 0" fill="#017761"/><path d="m243.785156 79.519531c-40.769531-19.042969-83.207031 14.554688-83.207031 14.554688s4.125-53.96875-34.460937-77.121094c-37.914063-22.742187-91.511719 8.800781-112.351563 57.296875 11.125-3.964844 26.632813-8.421875 41.207031-8.90625 26.800782-.886719 60.96875 15.308594 60.03125 31.921875s-17.113281 8.667969-38.792968 2.40625c-18.46875-5.332031-47.230469-10.394531-72.289063 5.648437-2.675781 12.308594-3.8789062 24.300782-3.921875 35.875 6.113281-2.429687 12.570312-4.519531 18.972656-5.785156 26.304688-5.214844 62.644532 5.238282 64.40625 21.785156 1.765625 16.546876-15.484375 11.324219-37.894531 8.652344-11.945313-1.421875-27.851563-2.09375-43.511719 2.476563 10.242188 68.929687 56.75 117.308593 56.75 117.308593s130.109375 22.667969 198.851563-78.554687c30.238281-44.527344 26.984375-108.511719-13.789063-127.558594zm-43.746094 134.261719c-7.195312 3.632812-26.890624-19.5625-31.558593-33.894531-4.667969-14.328125 1.269531-18.847657 10.054687-13.957031 7.042969 3.921874 13.867188 12.226562 18.214844 18.265624 3.917969 5.445313 6.402344 11.839844 6.839844 18.535157.304687 4.699219-.308594 9.414062-3.550782 11.050781zm0 0" fill="#5b9617"/></svg>