<svg height="483pt" viewBox="0 -13 483.3112 483" width="483pt" xmlns="http://www.w3.org/2000/svg"><path d="m124.351562 281.246094h134.960938l18.398438-30.640625 5.601562-9.359375v-96h24v136h168v96h-32c0-30.929688-25.074219-56-56-56-30.929688 0-56 25.070312-56 56h-176c0-30.929688-25.074219-56-56-56-30.929688 0-56 25.070312-56 56h-32v-136h40l6.480469 10.878906 17.519531 29.121094zm0 0" fill="#c6c5ca"/><path d="m395.3125 145.246094 80 136h-168v-136zm0 0" fill="#9bc9ff"/><path d="m387.3125 321.246094c30.925781 0 56 25.070312 56 56 0 30.925781-25.074219 56-56 56-30.929688 0-56-25.074219-56-56 .035156-30.914063 25.085938-55.964844 56-56zm24 56c0-13.253906-10.746094-24-24-24-13.257812 0-24 10.746094-24 24s10.742188 24 24 24c13.253906 0 24-10.746094 24-24zm0 0" fill="#d9ccbc"/><path d="m411.3125 377.246094c0 13.253906-10.746094 24-24 24-13.257812 0-24-10.746094-24-24s10.742188-24 24-24c13.253906 0 24 10.746094 24 24zm0 0" fill="#a78966"/><g fill="#ffda44"><path d="m248.03125 128.445312c-3.75-.019531-7.492188.25-11.199219.800782h-.082031c-20.890625 3-39.75 14.125-52.480469 30.960937-1.757812 2.398438-3.4375 4.796875-4.957031 7.359375v.078125l-.960938 1.679688c-6.8125 11.910156-10.371093 25.402343-10.320312 39.121093-.011719.535157.011719 1.070313.078125 1.601563.574219 30.09375 18.019531 57.308594 45.121094 70.398437v.800782h46.082031l18.398438-30.640625 5.601562-9.359375v-96h12.640625v-.800782c-13.800781-10.421874-30.628906-16.039062-47.921875-16zm0 0"/><path d="m213.230469 280.445312v.800782h-88.878907c26.792969-13.628906 43.671876-41.140625 43.679688-71.199219h.078125c.574219 30.09375 18.019531 57.308594 45.121094 70.398437zm0 0"/><path d="m171.632812 8.523438c-40.804687-1.847657-76.457031 27.320312-82.722656 67.683593-2.828125 18.351563.851563 37.113281 10.402344 53.039063l-.242188 1.597656h.242188v.082031c23.988281 3.34375 45.136719 17.457031 57.4375 38.320313h.082031c3.707031.550781 7.449219.816406 11.199219.800781 3.453125.003906 6.902344-.238281 10.320312-.722656l.960938-1.679688v-.078125c1.519531-2.5625 3.199219-4.960937 4.957031-7.359375 12.730469-16.835937 31.589844-27.960937 52.480469-30.960937h.082031c14.332031-24.171875 14.929688-54.09375 1.574219-78.820313-13.351562-24.726562-38.703125-40.632812-66.773438-41.902343zm0 0"/></g><path d="m99.3125 321.246094c30.925781 0 56 25.070312 56 56 0 30.925781-25.074219 56-56 56-30.929688 0-56-25.074219-56-56 .035156-30.914063 25.085938-55.964844 56-56zm24 56c0-13.253906-10.746094-24-24-24-13.257812 0-24 10.746094-24 24s10.742188 24 24 24c13.253906 0 24-10.746094 24-24zm0 0" fill="#d9ccbc"/><path d="m123.3125 377.246094c0 13.253906-10.746094 24-24 24-13.257812 0-24-10.746094-24-24s10.742188-24 24-24c13.253906 0 24 10.746094 24 24zm0 0" fill="#a78966"/><path d="m156.832031 169.246094h-.082031c-12.300781-20.863282-33.449219-34.976563-57.4375-38.320313v-.082031h-.242188c-.238281-.078125-.480468-.078125-.800781-.160156-2.144531-.304688-4.308593-.492188-6.476562-.558594-27.5-1.382812-53.769531 11.507812-69.5 34.105469-15.730469 22.597656-18.703125 51.707031-7.863281 77.015625h36.882812l6.480469 10.878906 17.519531 29.121094h49.039062c19.695313-10.015625 34.367188-27.738282 40.519532-48.960938 6.15625-21.21875 3.242187-44.042968-8.039063-63.039062zm0 0" fill="#ffda44"/><path d="m3.3125 457.246094h120v-16h-120zm0 0"/><path d="m139.3125 441.246094h192v16h-192zm0 0"/><path d="m347.3125 457.246094h136v-16h-136zm0 0"/><path d="m387.3125 345.246094c-17.675781 0-32 14.324218-32 32 0 17.671875 14.324219 32 32 32 17.671875 0 32-14.328125 32-32 0-17.675782-14.328125-32-32-32zm0 48c-8.835938 0-16-7.164063-16-16 0-8.835938 7.164062-16 16-16s16 7.164062 16 16c0 8.835937-7.164062 16-16 16zm0 0"/><path d="m99.3125 345.246094c-17.675781 0-32 14.324218-32 32 0 17.671875 14.324219 32 32 32 17.671875 0 32-14.328125 32-32 0-17.675782-14.328125-32-32-32zm0 48c-8.835938 0-16-7.164063-16-16 0-8.835938 7.164062-16 16-16s16 7.164062 16 16c0 8.835937-7.164062 16-16 16zm0 0"/><path d="m450.757812 385.246094h24.554688c4.417969 0 8-3.582032 8-8v-96c0-1.472656-.40625-2.914063-1.167969-4.167969l-79.9375-135.890625c-1.4375-2.441406-4.0625-3.941406-6.894531-3.941406h-95.714844c-14.457031-10.582032-31.835937-16.425782-49.75-16.730469 14.597656-36.910156 2.675782-79.023437-29.097656-102.808594-31.777344-23.785156-75.542969-23.355469-106.84375 1.050781-31.304688 24.402344-42.394531 66.742188-27.074219 103.359376-28.003906.292968-54.183593 13.9375-70.46875 36.71875-16.285156 22.785156-20.71875 51.972656-11.933593 78.5625-.699219 1.160156-1.085938 2.488281-1.117188 3.847656v136c0 4.417968 3.582031 8 8 8h24.550781c4.007813 31.992187 31.207031 55.996094 63.449219 55.996094s59.4375-24.003907 63.445312-55.996094h161.105469c4.007813 31.992187 31.207031 55.996094 63.449219 55.996094s59.4375-24.003907 63.445312-55.996094zm-135.445312-232h75.421875l70.59375 120h-146.015625zm-40 59.054687c-6.019531-6.992187-14.777344-11.027343-24-11.054687-8.835938 0-16-7.164063-16-16 0-8.835938 7.164062-16 16-16s16 7.164062 16 16h8zm0-67.054687v19.054687c-4.210938-4.84375-9.789062-8.304687-16-9.917969v-9.136718h-16v9.136718c-15.585938 4.011719-25.753906 18.992188-23.722656 34.957032s15.628906 27.925781 31.722656 27.90625c8.835938 0 16 7.164062 16 16 0 8.835937-7.164062 16-16 16s-16-7.164063-16-16h-16c.054688 14.546875 9.914062 27.226562 24 30.863281v9.136719h-26.585938c-24.789062-12.101563-40.5625-37.21875-40.695312-64.800782-.03125-12.914062 3.46875-25.59375 10.121094-36.664062.140625-.21875.261718-.449219.367187-.6875 11.09375-18.335938 29.804688-30.75 51.007813-33.847656l.511718-.058594c3.308594-.5 6.648438-.75 9.992188-.742188 9.597656-.03125 19.101562 1.875 27.945312 5.601563-.4375 1.007813-.664062 2.097656-.664062 3.199219zm-106.898438 100.34375c4.898438 10.441406 11.777344 19.835937 20.257813 27.65625h-39.625c8.160156-7.902344 14.730469-17.289063 19.367187-27.65625zm-71.558593-168.175782c5.121093-32.0625 30.945312-56.804687 63.199219-60.542968 26.539062-3.039063 52.574218 8.914062 67.570312 31.019531 14.996094 22.109375 16.472656 50.714844 3.839844 74.25-24.015625 4.558594-45.027344 18.953125-57.953125 39.695313-4.066407.304687-8.152344.257812-12.207031-.132813-12.753907-19.574219-32.867188-33.171875-55.785157-37.707031-8.144531-14.074219-11.203125-30.519532-8.664062-46.582032zm-78.34375 113.648438c9.589843-34.535156 43.015625-56.84375 78.582031-52.449219.371094.105469.75.183594 1.128906.238281 21.589844 2.957032 40.628906 15.664063 51.640625 34.464844.179688.304688.378907.59375.601563.863282 6.292968 10.90625 9.605468 23.273437 9.597656 35.867187-.167969 26.410156-14.710938 50.632813-37.941406 63.199219h-22.808594v-9.136719c15.585938-4.011719 25.75-18.996094 23.71875-34.960937-2.03125-15.964844-15.625-27.921876-31.71875-27.902344-8.835938 0-16-7.164063-16-16 0-8.835938 7.164062-16 16-16s16 7.164062 16 16h16c-.054688-14.546875-9.914062-27.226563-24-30.863282v-9.136718h-16v9.136718c-15.585938 4.011719-25.753906 18.992188-23.722656 34.957032s15.628906 27.925781 31.722656 27.90625c8.835938 0 16 7.164062 16 16 0 8.835937-7.164062 16-16 16s-16-7.164063-16-16h-16c.019531 2.46875.332031 4.929687.925781 7.328125l-2.070312-3.449219c-1.445313-2.40625-4.050781-3.878906-6.855469-3.878906h-31.425781c-4.59375-13.621094-5.070313-28.292969-1.375-42.183594zm64.800781 82.183594h-3.472656l-9.71875-16.207032c3.769531 3.371094 8.292968 5.796876 13.191406 7.070313zm-64-24h27.46875l21.675781 36.121094c1.445313 2.40625 4.046875 3.878906 6.855469 3.878906h184c2.804688 0 5.410156-1.472656 6.855469-3.878906l24-40c.746093-1.246094 1.144531-2.671876 1.144531-4.121094v-88h8v128c0 4.417968 3.582031 8 8 8h160v80h-16.554688c-4.007812-31.992188-31.203124-55.996094-63.445312-55.996094s-59.441406 24.003906-63.449219 55.996094h-161.105469c-4.007812-31.992188-31.203124-55.996094-63.445312-55.996094s-59.441406 24.003906-63.449219 55.996094h-16.550781zm80 176c-26.511719 0-48-21.492188-48-48 0-26.511719 21.488281-48 48-48 26.507812 0 48 21.488281 48 48-.027344 26.496094-21.503906 47.972656-48 48zm288 0c-26.511719 0-48-21.492188-48-48 0-26.511719 21.488281-48 48-48 26.507812 0 48 21.488281 48 48-.027344 26.496094-21.503906 47.972656-48 48zm0 0"/><path d="m171.3125 129.246094c-8.835938 0-16-7.164063-16-16h-16c.054688 14.546875 9.914062 27.226562 24 30.863281v9.136719h16v-9.136719c15.585938-4.011719 25.75-18.996094 23.71875-34.960937-2.03125-15.964844-15.625-27.921876-31.71875-27.902344-8.835938 0-16-7.164063-16-16 0-8.835938 7.164062-16 16-16s16 7.164062 16 16h16c-.054688-14.546875-9.914062-27.226563-24-30.863282v-9.136718h-16v9.136718c-15.585938 4.011719-25.753906 18.992188-23.722656 34.957032s15.628906 27.925781 31.722656 27.90625c8.835938 0 16 7.164062 16 16 0 8.835937-7.164062 16-16 16zm0 0"/></svg>