<svg height="486.16pt" viewBox="0 0 486.16 486.16" width="486.16pt" xmlns="http://www.w3.org/2000/svg"><path d="m135.761719 158.382812-90.515625-90.511718 22.625-22.625 90.511718 90.515625zm-113.136719-113.136718-22.625-22.621094 22.625-22.625 22.621094 22.625zm0 0" fill="#66bb6a"/><path d="m179.070312 179.070312h128v128h-128zm0 0" fill="#43a047"/><g fill="#66bb6a"><path d="m135.761719 158.382812-90.515625-90.511718 22.625-22.625 90.511718 90.515625zm-113.136719-113.136718-22.625-22.621094 22.625-22.625 22.621094 22.625zm0 0"/><path d="m135.761719 158.382812-90.515625-90.511718 22.625-22.625 90.511718 90.515625zm-113.136719-113.136718-22.625-22.621094 22.625-22.625 22.621094 22.625zm0 0"/><path d="m350.382812 158.382812-22.621093-22.621093 90.511719-90.515625 22.621093 22.625zm113.152344-113.136718-22.625-22.621094 22.625-22.625 22.625 22.625zm0 0"/><path d="m22.625 486.160156-22.625-22.625 22.625-22.625 22.621094 22.625zm45.246094-45.25-22.625-22.621094 90.515625-90.511718 22.621093 22.621094zm0 0"/><path d="m22.625 486.160156-22.625-22.625 22.625-22.625 22.621094 22.625zm45.246094-45.25-22.625-22.621094 90.515625-90.511718 22.621093 22.621094zm0 0"/><path d="m22.625 486.160156-22.625-22.625 22.625-22.625 22.621094 22.625zm45.246094-45.25-22.625-22.621094 90.515625-90.511718 22.621093 22.621094zm0 0"/><path d="m463.535156 486.160156-22.625-22.625 22.625-22.625 22.625 22.625zm-45.246094-45.25-90.511718-90.511718 22.621094-22.621094 90.511718 90.511718zm0 0"/></g><path d="m163.070312 163.070312h-96c-8.832031 0-16-7.167968-16-16 0-8.832031 7.167969-16 16-16h64v-64c0-8.832031 7.167969-16 16-16 8.832032 0 16 7.167969 16 16zm0 0" fill="#81c784"/><path d="m419.070312 163.070312h-96v-96c0-8.832031 7.167969-16 16-16 8.832032 0 16 7.167969 16 16v64h64c8.832032 0 16 7.167969 16 16 0 8.851563-7.148437 16-16 16zm0 0" fill="#81c784"/><path d="m147.070312 435.070312c-8.832031 0-16-7.167968-16-16v-64h-64c-8.832031 0-16-7.167968-16-16 0-8.832031 7.167969-16 16-16h96v96c0 8.851563-7.148437 16-16 16zm0 0" fill="#81c784"/><path d="m339.070312 435.070312c-8.832031 0-16-7.167968-16-16v-96h96c8.832032 0 16 7.167969 16 16 0 8.832032-7.167968 16-16 16h-64v64c0 8.851563-7.148437 16-16 16zm0 0" fill="#81c784"/><path d="m307.070312 307.070312-128-128h128zm0 0" fill="#66bb6a"/></svg>