<svg height="512pt" viewBox="0 0 512.00007 512" width="512pt" xmlns="http://www.w3.org/2000/svg"><path d="m256 71.769531-180.058594 184.117188.0625.0625v206.046875h359.992188v-206.046875l.0625-.0625zm0 0" fill="#e0f4ff"/><path d="m238.121094 17.222656c9.410156-9.628906 26.347656-9.628906 35.757812 0l221 227.304688c9.648438 9.871094 9.457032 25.699218-.410156 35.351562-9.867188 9.640625-25.703125 9.476563-35.351562-.410156-13.375-13.675781-197.429688-201.878906-203.117188-207.699219-7.449219 7.617188-193.175781 197.53125-203.117188 207.699219-9.660156 9.878906-25.480468 10.070312-35.347656.410156-9.871094-9.652344-10.0625-25.480468-.410156-35.351562 174.390625-179.363282 212.171875-218.230469 220.996094-227.304688zm0 0" fill="#ff641a"/><path d="m455.996094 461.996094c11.050781 0 20 8.949218 20 20 0 11.039062-8.957032 20-20 20h-399.992188c-11.050781 0-20-8.949219-20-20 0-11.039063 8.960938-20 20-20zm0 0" fill="#7c8388"/><g fill="#9cdd05"><path d="m336 276c11.050781 0 20 8.949219 20 19.996094 0 11.050781-8.949219 20-20 20s-20-8.949219-20-20c0-11.046875 8.949219-19.996094 20-19.996094zm0 0"/><path d="m256 196c11.050781 0 20 8.949219 20 20s-8.949219 20-20 20-20-8.949219-20-20 8.949219-20 20-20zm0 0"/><path d="m176 276c11.050781 0 20 8.949219 20 19.996094 0 11.042968-8.957031 20-20 20-11.046875 0-20-8.949219-20-20 0-11.046875 8.953125-19.996094 20-19.996094zm0 0"/></g><path d="m136 50v72.261719l-59.996094 61.707031v-133.96875zm0 0" fill="#7c8388"/><path d="m451.960938 286.453125c13.574218 13.90625 35.722656 14.035156 49.496093.574219 13.828125-13.519532 14.082031-35.667969.589844-49.46875l-221.015625-227.324219c-6.355469-6.503906-15.476562-10.234375-25.03125-10.234375-9.550781 0-18.675781 3.730469-25.050781 10.25l-84.949219 87.375v-47.625c0-5.519531-4.476562-10-10-10h-59.996094c-5.523437 0-10 4.480469-10 10v129.910156l-56.03125 57.628906c-13.511718 13.820313-13.265625 35.960938.566406 49.484376 13.816407 13.523437 35.964844 13.273437 49.492188-.5625l5.972656-6.105469v46.640625c0 5.523437 4.476563 10 10 10 5.523438 0 10-4.476563 10-10v-67.089844l169.996094-173.832031 169.996094 173.832031v192.089844h-119.996094v-92.972656l22.625-33.945313c2.359375.597656 4.832031.921875 7.375.921875 16.539062 0 30-13.460938 30-30 0-16.542969-13.460938-30-30-30-16.542969 0-30 13.457031-30 30 0 6.734375 2.230469 12.957031 5.992188 17.972656l-24.3125 36.480469c-1.097657 1.640625-1.679688 3.570313-1.679688 5.546875v95.996094h-20v-207.714844c11.636719-4.128906 20-15.246094 20-28.28125 0-16.542969-13.457031-30-30-30s-30 13.457031-30 30c0 13.035156 8.359375 24.152344 20 28.28125v207.714844h-20v-95.996094c0-1.722656-.445312-3.414062-1.289062-4.914062l-22.667969-40.195313c2.578125-4.484375 3.957031-9.582031 3.957031-14.890625 0-16.542969-13.457031-30-30-30s-30 13.457031-30 30 13.457031 30 30 30c3.652344 0 7.207031-.65625 10.53125-1.902344l19.46875 34.527344v93.371094h-120v-44.996094c0-5.523438-4.476562-10-10-10s-10 4.476562-10 10v44.996094h-10c-16.574219 0-30 13.425781-30 30 0 16.542968 13.460938 30 30 30h399.996094c16.574218 0 30-13.421875 30-30 0-16.539063-13.457032-30-30-30h-10v-171.640625zm-115.960938-.453125c5.511719 0 10 4.484375 10 9.996094 0 5.515625-4.488281 10-10 10-5.515625 0-10-4.484375-10-10 0-5.511719 4.484375-9.996094 10-9.996094zm-80-80c5.515625 0 10 4.484375 10 10 0 5.511719-4.484375 10-10 10-5.511719 0-10-4.488281-10-10 0-5.515625 4.488281-10 10-10zm-90 89.996094c0-5.511719 4.488281-9.996094 10-9.996094 5.515625 0 10 4.484375 10 9.996094 0 5.523437-4.476562 10-10 10-5.511719 0-10-4.484375-10-10zm299.996094 186c0 5.519531-4.476563 10-10 10h-399.992188c-5.515625 0-10-4.488282-10-10 0-5.523438 4.476563-10 10-10h399.992188c5.515625 0 10 4.484375 10 10zm-379.992188-421.996094h40v58.195312l-40 41.140626zm169.996094 1.769531c-2.691406 0-5.269531 1.085938-7.148438 3.007813l-203.117187 207.699218c-5.566406 5.695313-15.011719 6.316407-21.210937.25-5.902344-5.769531-6.070313-15.253906-.230469-21.226562 98.128906-100.929688-170.722657 175.617188 220.980469-227.289062 2.613281-2.675782 6.523437-4.210938 10.726562-4.210938s8.113281 1.535156 10.710938 4.191406l221.015624 227.328125c5.792969 5.921875 5.679688 15.410157-.246093 21.207031-5.910157 5.773438-15.394531 5.710938-21.210938-.25l-203.117187-207.699218c-1.882813-1.921875-4.460938-3.007813-7.152344-3.007813zm0 0"/><path d="m76.003906 376.996094c5.519532 0 10-4.480469 10-10 0-5.519532-4.480468-10-10-10-5.519531 0-10 4.480468-10 10 0 5.519531 4.480469 10 10 10zm0 0"/></svg>